<svg width="180" height="28" viewBox="0 0 180 28" fill="none" xmlns="http://www.w3.org/2000/svg">
<g clip-path="url(#clip0_104_2249)">
<mask id="mask0_104_2249" style="mask-type:luminance" maskUnits="userSpaceOnUse" x="-14" y="-15" width="208" height="58">
<path d="M-13.7854 -14.0039H193.797V42.0005H-13.7854V-14.0039Z" fill="white"/>
</mask>
<g mask="url(#mask0_104_2249)">
<path d="M170.898 12.2979V16.1095H173.535V19.8912C173.543 20.2292 173.525 20.5936 173.468 20.8852C173.363 21.5906 172.703 22.7917 170.831 22.7917C168.97 22.7917 168.322 21.5906 168.21 20.8852C168.163 20.5936 168.143 20.2292 168.143 19.8912V7.94669C168.143 7.52418 168.171 7.06175 168.259 6.71173C168.387 6.07512 168.942 4.81969 170.817 4.81969C172.786 4.81969 173.277 6.14325 173.39 6.71173C173.464 7.08826 173.468 7.71983 173.468 7.71983V9.17024H179.948V8.31281C179.948 8.31281 179.978 7.41814 179.899 6.5832C179.412 1.68062 175.435 0.129534 170.874 0.129534C166.306 0.129534 162.409 1.69505 161.841 6.5832C161.79 7.0302 161.712 7.83427 161.712 8.31281V19.3006C161.712 19.7791 161.727 20.1496 161.814 21.0242C162.237 25.7918 166.306 27.4819 170.856 27.4819C175.435 27.4819 179.475 25.7918 179.905 21.0242C179.982 20.1496 179.99 19.7791 180 19.3006V12.2979H170.898ZM126.213 0.832588H119.705V20.1667C119.715 20.5037 119.705 20.8822 119.648 21.1597C119.512 21.8088 118.971 23.0578 117.175 23.0578C115.403 23.0578 114.847 21.8088 114.721 21.1597C114.656 20.8822 114.648 20.5037 114.656 20.1667V0.832588H108.15V19.5667C108.142 20.0496 108.179 21.0362 108.207 21.2946C108.657 26.1764 112.445 27.7614 117.175 27.7614C121.915 27.7614 125.701 26.1764 126.158 21.2946C126.194 21.0362 126.241 20.0496 126.213 19.5667V0.832588ZM66.4169 0.832588L63.1705 21.2618L59.9261 0.832588H49.4283L48.8715 26.9674H55.3028L55.477 2.77362L59.902 26.9674H66.4271L70.8561 2.77362L71.0309 26.9674H77.4784L76.9028 0.832588H66.4169ZM27.5492 0.832588L22.7825 26.9674H29.7336L33.3256 2.77362L36.8313 26.9674H43.7342L38.9873 0.832588H27.5492ZM148.957 21.8742L142.897 0.832588H133.348V26.6949H139.665L139.298 4.9801L145.806 26.6949H154.965V0.832588H148.606L148.957 21.8742ZM90.5263 7.63426C90.412 7.11813 90.4451 6.56978 90.5042 6.28319C90.6883 5.44657 91.2417 4.53411 92.8363 4.53411C94.3226 4.53411 95.1939 5.47509 95.1939 6.88724V8.4853H101.538V6.66374C101.538 1.0326 96.5671 0.147991 92.9682 0.147991C88.4354 0.147991 84.7337 1.66551 84.0577 5.90263C83.8789 7.05571 83.8347 8.07924 84.1192 9.38535C85.2214 14.6685 94.2773 16.2011 95.5917 19.5422C95.8237 20.1751 95.7572 20.9822 95.639 21.4577C95.442 22.3272 94.8661 23.2018 93.1588 23.2018C91.5576 23.2018 90.5938 22.2668 90.5938 20.8577L90.5918 18.3495H83.7633V20.3433C83.7633 26.1204 88.2187 27.8634 93.0174 27.8634C97.6132 27.8634 101.409 26.2684 102.018 21.9447C102.308 19.7107 102.089 18.2556 101.973 17.7076C100.909 12.2888 91.2569 10.6589 90.5263 7.63426ZM6.8397 7.57016C6.71513 7.04329 6.74421 6.48722 6.8136 6.19728C6.98938 5.36468 7.54614 4.43612 9.16883 4.43612C10.6739 4.43612 11.5601 5.38616 11.5601 6.80972V8.42725H17.9785V6.59125C17.9785 0.906083 12.9317 -3.24981e-06 9.29341 -3.24981e-06C4.7227 -3.24981e-06 0.987957 1.54101 0.304647 5.80867C0.117629 6.9802 0.0855675 8.01079 0.355852 9.33132C1.47003 14.6745 10.6154 16.2196 11.946 19.6006C12.1952 20.2292 12.1198 21.0362 11.9962 21.5302C11.7851 22.4088 11.2046 23.2957 9.48307 23.2957C7.87557 23.2957 6.91405 22.3447 6.91405 20.9161L6.90513 18.4012H0V20.3996C0 26.2429 4.5185 28 9.35453 28C14.0039 28 17.8219 26.3909 18.4447 22.0172C18.7543 19.7627 18.5221 18.2955 18.4176 17.7391C17.3316 12.2539 7.57225 10.6294 6.8397 7.57016Z" fill="#BEBDC1"/>
</g>
</g>
<defs>
<clipPath id="clip0_104_2249">
<rect width="180" height="28" fill="white"/>
</clipPath>
</defs>
</svg>
