<svg width="180" height="55" viewBox="0 0 180 55" fill="none" xmlns="http://www.w3.org/2000/svg">
<g clip-path="url(#clip0_104_2252)">
<path d="M89.1799 55.0001V54.9108C89.2698 54.7992 89.4271 54.7322 89.5619 54.7545C90.2136 54.7322 90.8428 54.7322 91.4944 54.7545C91.6292 54.7545 91.7865 54.7992 91.8764 54.9108V55.0001H89.1799Z" fill="#BEBDC1"/>
<path d="M91.8762 54.9105C90.9774 54.8882 90.0786 54.8882 89.1797 54.9105C87.9438 54.8436 86.7079 54.7989 85.4721 54.7096C82.1913 54.4641 78.9331 53.973 75.7422 53.2364C64.7091 50.6918 55.0241 45.5802 46.5751 38.1471C45.7887 37.4552 45.0471 36.7409 44.2831 36.0266C44.1033 35.8704 43.9461 35.6472 43.8562 35.4239C43.7213 35.1114 43.7888 34.7766 44.0135 34.5311C44.2382 34.2855 44.5977 34.1963 44.9123 34.3302C45.1145 34.4195 45.3168 34.5088 45.4965 34.6204C53.5635 39.5757 62.3721 43.1918 71.6076 45.3346C74.7085 46.0489 77.832 46.607 80.9779 47.0088C85.4945 47.5668 90.0561 47.7677 94.5952 47.6114C97.0445 47.5445 99.4713 47.3213 101.898 47.0088C107.561 46.2945 113.156 45.0222 118.572 43.2364C121.425 42.2989 124.212 41.2275 126.931 39.9775C127.335 39.7543 127.829 39.6873 128.279 39.7989C129.02 39.9775 129.47 40.7364 129.29 41.473C129.268 41.5623 129.223 41.6739 129.178 41.7632C128.998 42.098 128.751 42.3882 128.436 42.6114C125.852 44.6204 123.066 46.3838 120.122 47.857C114.572 50.6472 108.639 52.6338 102.527 53.7722C98.9995 54.3972 95.4491 54.7766 91.8762 54.9105ZM58.597 9.66501C59.1588 9.33018 59.743 8.97304 60.3497 8.66054C61.9227 7.85697 63.6754 7.45518 65.4506 7.54447C66.7314 7.61143 67.8999 7.96858 68.7987 8.90608C69.6526 9.77661 69.9672 10.848 70.0571 12.0088C70.0796 12.2543 70.0796 12.4998 70.0796 12.7677V24.3302C70.0796 25.3346 69.9447 25.4686 68.9336 25.4686H66.1921C66.0124 25.4686 65.8326 25.4686 65.6528 25.4463C65.3832 25.4239 65.1585 25.2007 65.1135 24.9329C65.0686 24.6873 65.0686 24.4418 65.0686 24.1963V13.8614C65.0911 13.4373 65.0461 13.0355 64.9338 12.6338C64.754 11.9418 64.1248 11.4507 63.4057 11.4061C62.08 11.3168 60.7542 11.5846 59.5408 12.1427C59.361 12.1873 59.2487 12.3659 59.2711 12.5445V24.2855C59.2711 24.5088 59.2711 24.7096 59.2262 24.9329C59.2262 25.2454 58.979 25.4686 58.6644 25.4686C58.3274 25.4909 57.9903 25.4909 57.6308 25.4909H55.2489C54.4174 25.4909 54.2377 25.29 54.2377 24.4641V13.9061C54.2377 13.5266 54.2152 13.1248 54.1253 12.7454C53.968 11.9864 53.3164 11.4507 52.5524 11.4061C51.2041 11.3168 49.8334 11.5846 48.62 12.165C48.4402 12.2096 48.3279 12.4105 48.3728 12.5891V24.4864C48.3728 25.3123 48.193 25.4909 47.3616 25.4909H44.3505C43.5641 25.4909 43.3618 25.2677 43.3618 24.5088V9.01768C43.3618 8.83911 43.3843 8.66054 43.4292 8.48197C43.5191 8.21411 43.7888 8.05786 44.0584 8.05786H46.8673C47.2717 8.05786 47.5189 8.3034 47.6537 8.68286C47.7661 8.99536 47.8335 9.28554 47.9459 9.62036C48.1706 9.62036 48.3054 9.46411 48.4627 9.37483C49.6986 8.6159 51.0019 7.96858 52.4625 7.70072C53.586 7.47751 54.7096 7.47751 55.8331 7.70072C56.8892 7.92393 57.833 8.54893 58.4397 9.44179C58.4847 9.50876 58.5296 9.5534 58.5745 9.59804C58.5521 9.62036 58.5745 9.62036 58.597 9.66501Z" fill="#BEBDC1"/>
<path d="M105.179 20.7813C105.314 20.3349 105.449 19.9108 105.583 19.4644C106.617 16.0045 107.651 12.567 108.684 9.10723L108.819 8.70544C108.932 8.30366 109.314 8.05812 109.718 8.05812H113.134C113.988 8.05812 114.167 8.30366 113.875 9.10723L112.527 12.6563C111.021 16.5403 109.516 20.4465 108.01 24.3304C107.965 24.4644 107.898 24.5983 107.853 24.7322C107.696 25.201 107.224 25.5135 106.729 25.4688C105.741 25.4465 104.752 25.4465 103.763 25.4688C103.067 25.4912 102.662 25.1787 102.415 24.5537C101.853 23.0804 101.269 21.5849 100.707 20.1117C99.359 16.6072 97.9883 13.1028 96.6401 9.57598C96.5053 9.30812 96.4154 8.99562 96.348 8.70544C96.2805 8.25901 96.4378 8.0358 96.8873 8.0358C98.1681 8.01348 99.4489 8.0358 100.707 8.0358C101.247 8.0358 101.494 8.39294 101.629 8.86169C101.876 9.70991 102.123 10.5804 102.393 11.4287C103.314 14.5313 104.213 17.6563 105.134 20.759C105.112 20.7813 105.134 20.7813 105.179 20.7813Z" fill="#BEBDC1"/>
<path d="M25.3854 10.5136C25.5427 10.4689 25.6775 10.3796 25.7674 10.2457C26.1719 9.84393 26.5988 9.46447 27.0482 9.10733C28.2167 8.21447 29.6773 7.76804 31.1379 7.87965C31.7221 7.90197 31.9244 8.08054 31.9693 8.63858C32.0143 9.3975 31.9918 10.1788 31.9918 10.9377C32.0143 11.2502 31.9918 11.5404 31.9468 11.8529C31.857 12.2546 31.6997 12.4109 31.2952 12.4555C30.9806 12.4779 30.6885 12.4555 30.3739 12.4332C28.8683 12.2993 27.4077 12.5895 25.9921 13.0582C25.6775 13.1698 25.6775 13.393 25.6775 13.6386V24.3529C25.6775 24.5538 25.6775 24.7323 25.655 24.9332C25.6326 25.2234 25.4078 25.4466 25.1157 25.4466C24.9584 25.4689 24.7787 25.4689 24.6214 25.4689H21.7002C21.5429 25.4689 21.3631 25.4689 21.2058 25.4466C20.9137 25.4243 20.689 25.1788 20.6665 24.8886C20.644 24.71 20.644 24.5314 20.644 24.3529V9.17429C20.644 8.1475 20.7564 8.0359 21.7901 8.0359H23.9472C24.5315 8.0359 24.8011 8.23679 24.9584 8.79483C25.1157 9.35286 25.2506 9.9109 25.3854 10.5136ZM130.504 33.1475C131.987 33.1921 133.447 33.2814 134.886 33.6609C135.29 33.7725 135.672 33.9064 136.054 34.085C136.571 34.2859 136.908 34.777 136.975 35.3127C137.065 35.9377 137.088 36.585 137.043 37.2323C136.751 41.0493 135.56 44.7323 133.582 48.0136C132.863 49.1966 131.987 50.268 130.976 51.2055C130.773 51.4064 130.526 51.5627 130.257 51.652C129.83 51.7636 129.56 51.5404 129.537 51.1163C129.56 50.893 129.605 50.6698 129.695 50.4466C130.481 48.3484 131.245 46.2725 131.852 44.1073C132.211 42.9243 132.459 41.7189 132.616 40.4913C132.661 40.0448 132.683 39.5984 132.638 39.152C132.616 38.393 132.122 37.7457 131.38 37.5225C130.683 37.2993 129.964 37.1654 129.223 37.1207C127.156 37.0314 125.088 37.1207 123.043 37.3886L120.324 37.7234C120.032 37.7457 119.763 37.7234 119.605 37.4555C119.448 37.1877 119.515 36.9198 119.673 36.652C119.853 36.4064 120.077 36.1832 120.347 36.027C122.01 34.8439 123.875 34.1296 125.852 33.6609C127.38 33.3484 128.931 33.1921 130.504 33.1475Z" fill="#BEBDC1"/>
<path d="M121.088 16.7635V24.7992C121.043 25.2456 120.841 25.4465 120.392 25.4688C119.178 25.4911 117.987 25.4911 116.774 25.4688C116.325 25.4688 116.122 25.2456 116.077 24.8215C116.055 24.6876 116.055 24.5313 116.055 24.3974V8.95096C116.077 8.259 116.257 8.05811 116.954 8.05811H120.19C120.886 8.05811 121.088 8.259 121.088 8.95096V16.7635Z" fill="#BEBDC1"/>
<path d="M34.1489 16.7189V8.7948C34.1714 8.25909 34.3736 8.0582 34.9129 8.03588C36.0814 8.01355 37.2499 8.01355 38.4184 8.03588C38.9352 8.03588 39.0925 8.19213 39.1374 8.70552C39.1599 8.90641 39.1599 9.08498 39.1599 9.28588V24.1519C39.1599 24.3975 39.1374 24.643 39.115 24.8886C39.0925 25.1787 38.8678 25.3796 38.5757 25.4019C38.4408 25.4243 38.3285 25.4243 38.1937 25.4243H35.0702C34.9579 25.4243 34.868 25.4243 34.7556 25.4019C34.441 25.3796 34.1714 25.1341 34.1489 24.8216C34.1264 24.643 34.1264 24.4644 34.1264 24.2859C34.1489 21.8082 34.1489 19.2636 34.1489 16.7189ZM36.7555 0.0448042C37.1151 0.0224827 37.4746 0.089447 37.8116 0.201054C39.0251 0.60284 39.6543 1.65195 39.5419 3.01355C39.452 4.17427 38.5757 5.11177 37.4072 5.29034C36.9128 5.37963 36.396 5.37963 35.9016 5.29034C34.6208 5.0448 33.677 4.1073 33.7669 2.50016C33.9017 0.91534 34.9579 0.0448042 36.7555 0.0448042Z" fill="#BEBDC1"/>
<path d="M118.594 0.0445796C119.043 -6.3217e-05 119.493 0.0892225 119.92 0.267794C120.796 0.602615 121.403 1.40619 121.448 2.34369C121.628 4.37494 120.257 5.40172 118.437 5.35708C118.19 5.35708 117.942 5.31244 117.695 5.26779C116.302 4.93297 115.583 3.86154 115.718 2.32137C115.83 1.09369 116.796 0.178508 118.122 0.0669011C118.279 0.0445796 118.437 0.0222582 118.594 0.0445796Z" fill="#BEBDC1"/>
<path d="M17.3183 14.8884C17.2285 13.7276 16.9139 12.5893 16.442 11.5401C15.5207 9.6205 14.105 8.21425 11.9478 7.72318C9.47604 7.18747 7.25143 7.72318 5.22906 9.21872C5.09424 9.35264 4.93694 9.46425 4.75717 9.55354C4.71223 9.53122 4.66729 9.50889 4.66729 9.48657C4.59988 9.26336 4.55494 9.04014 4.48753 8.81693C4.30776 8.25889 4.08305 8.058 3.47634 8.058C2.80222 8.058 2.10562 8.08032 1.4315 8.058C0.914671 8.03568 0.442784 8.10264 0.083252 8.50443C0.083252 16.3169 0.083252 24.1518 0.105723 31.9419C0.397843 32.4107 0.847258 32.5 1.36409 32.4776C2.17303 32.4553 2.98198 32.4776 3.79093 32.4776C5.20659 32.4776 5.20659 32.4776 5.20659 31.0937V24.7321C5.20659 24.5759 5.13918 24.3973 5.29647 24.2634C6.42001 25.1339 7.79073 25.6696 9.20639 25.8035C11.1838 26.0044 12.9815 25.5134 14.487 24.1741C15.5881 23.1696 16.397 21.875 16.824 20.4464C17.4307 18.616 17.4756 16.7634 17.3183 14.8884ZM11.9478 19.5089C11.7905 20.2009 11.431 20.8259 10.9142 21.2946C10.3299 21.7857 9.61086 22.0759 8.84686 22.0759C7.70085 22.1428 6.57731 21.8973 5.56612 21.3616C5.31894 21.25 5.16165 21.0044 5.18412 20.7366V16.6964C5.18412 15.3571 5.20659 14.0178 5.18412 12.6785C5.16165 12.366 5.34141 12.0982 5.63354 11.9866C6.86943 11.4062 8.15026 11.1384 9.49851 11.4062C10.4423 11.5401 11.2512 12.1428 11.6332 13.0134C11.9703 13.7276 12.1725 14.5089 12.2175 15.2901C12.3523 16.7187 12.3523 18.1473 11.9478 19.5089Z" fill="#BEBDC1"/>
<path d="M179.872 18.3703C179.872 18.348 179.872 18.348 179.872 18.3703ZM179.894 15.3793V15.4685C179.804 15.3793 179.759 15.2453 179.804 15.1337V14.9551C179.804 14.9551 179.804 14.9328 179.827 14.9328H179.804V14.7096H179.849C179.849 14.6873 179.827 14.6873 179.827 14.665C179.782 14.2409 179.692 13.8168 179.58 13.415C178.748 10.4685 176.883 8.52658 173.85 7.76765C172.434 7.43283 170.996 7.38818 169.558 7.6114C166.524 8.05783 164.344 9.66497 163.288 12.5221C162.255 15.2453 162.277 18.2364 163.311 20.9596C164.21 23.4373 166.007 24.9998 168.591 25.6471C169.962 25.9819 171.4 26.0712 172.816 25.8703C177.535 25.3123 179.49 21.7632 179.804 18.6828H179.782V18.3703C179.759 18.2364 179.737 18.1248 179.872 18.0355V18.0801C179.872 18.0578 179.894 18.0132 179.917 17.9909V15.4239C179.917 15.4016 179.894 15.4016 179.894 15.3793ZM174.501 19.6203C174.366 20.0891 174.164 20.5132 173.872 20.915C173.378 21.6069 172.591 22.0534 171.737 22.1203C171.31 22.165 170.883 22.165 170.457 22.0757C169.513 21.8971 168.726 21.2721 168.344 20.4016C168.007 19.7096 167.805 18.9507 167.738 18.1918C167.625 16.8748 167.603 15.5578 167.917 14.2632C168.03 13.7498 168.254 13.2364 168.524 12.79C169.018 11.9864 169.872 11.473 170.816 11.406C171.243 11.3614 171.67 11.3614 172.097 11.4507C172.996 11.6293 173.737 12.2096 174.142 13.0355C174.524 13.8168 174.748 14.6873 174.793 15.5578C174.816 15.9596 174.838 16.3614 174.816 16.7632C174.883 17.7453 174.771 18.7051 174.501 19.6203ZM140.503 0.200684H137.38C136.526 0.200684 136.368 0.356934 136.368 1.20515V8.43729C136.368 8.59354 136.436 8.74979 136.323 8.90604C136.121 8.88372 136.009 8.74979 135.852 8.66051C133.515 7.2989 131.065 7.05336 128.593 8.19176C126.863 8.99533 125.785 10.4462 125.088 12.165C124.414 13.8168 124.257 15.5578 124.302 17.3212C124.302 18.973 124.684 20.6025 125.425 22.0757C126.279 23.7051 127.515 24.9551 129.313 25.4909C131.762 26.2498 134.054 25.8703 136.144 24.3301C136.301 24.2409 136.391 24.0846 136.593 24.04C136.705 24.2855 136.795 24.5534 136.84 24.8212C136.93 25.1784 137.245 25.4239 137.627 25.4239H138.166C138.975 25.4239 139.761 25.4462 140.548 25.4239C141.177 25.4239 141.357 25.223 141.379 24.5757V1.0489C141.357 0.356934 141.177 0.200684 140.503 0.200684ZM136.391 16.6293V20.6918C136.436 20.9596 136.278 21.2051 136.031 21.3168C134.953 21.9194 133.717 22.165 132.503 21.9864C131.47 21.8748 130.571 21.2498 130.099 20.3346C129.739 19.6203 129.537 18.8614 129.47 18.0801C129.29 16.6739 129.402 15.2453 129.739 13.8837C129.852 13.5043 129.987 13.1471 130.189 12.79C130.661 11.9194 131.56 11.3614 132.548 11.2944C133.739 11.1828 134.93 11.406 136.009 11.8971C136.278 11.9864 136.436 12.2543 136.413 12.5444C136.368 13.9284 136.391 15.2676 136.391 16.6293Z" fill="#BEBDC1"/>
<path d="M78.2815 18.1694C79.9668 18.4819 81.6971 18.5042 83.3824 18.2364C84.3711 18.1024 85.3149 17.8123 86.1912 17.3435C87.2024 16.7632 87.944 15.9596 88.2585 14.8435C89.045 12.031 87.8316 9.19619 84.8879 8.14709C83.4498 7.67834 81.9218 7.52209 80.4162 7.72298C76.8659 8.12476 74.5514 10.0667 73.4952 13.4373C72.7537 15.7364 72.8436 18.0801 73.4503 20.4016C74.2368 23.3703 76.2142 25.1337 79.2028 25.7587C80.9106 26.1382 82.6409 26.0712 84.3486 25.8033C85.2475 25.6471 86.1463 25.4239 87.0002 25.089C87.517 24.8882 87.7867 24.5757 87.7642 23.9953C87.7417 23.4596 87.7642 22.9015 87.7642 22.3435C87.7642 21.6739 87.4945 21.473 86.8429 21.6292C86.1912 21.7855 85.5621 21.9194 84.9104 22.0533C83.5172 22.3435 82.0791 22.3435 80.6859 22.098C78.7759 21.7185 77.54 20.089 77.6523 18.0801C77.8546 18.1024 78.0793 18.1248 78.2815 18.1694ZM77.7198 14.7542C77.7872 14.2185 77.9445 13.7051 78.1467 13.214C78.8208 11.5846 80.2365 11.0266 81.6746 11.1158C82.0791 11.1382 82.4836 11.2274 82.8656 11.3837C83.4498 11.6292 83.8318 12.1649 83.8992 12.7899C83.9666 13.1694 83.9442 13.5712 83.8318 13.9507C83.5622 14.7542 82.9105 15.089 82.124 15.2453C81.6521 15.3569 81.1578 15.4015 80.6634 15.3569C79.7871 15.3569 78.8882 15.2899 78.0119 15.156C77.6748 15.1114 77.6748 15.1114 77.7198 14.7542Z" fill="#BEBDC1"/>
<path d="M154.076 18.393C155.379 18.3037 156.682 18.0582 157.851 17.4332C159.042 16.8528 159.873 15.7591 160.12 14.4645C160.277 13.6609 160.277 12.8127 160.098 12.0091C159.626 10.0002 158.345 8.75017 156.412 8.10285C155.334 7.76802 154.188 7.63409 153.064 7.67874C149.289 7.76802 146.413 9.66535 145.245 13.4153C144.458 15.893 144.57 18.4153 145.334 20.893C146.121 23.4377 147.919 24.9778 150.48 25.6698C151.581 25.9377 152.727 26.0493 153.851 26.0046C155.491 25.9823 157.132 25.6698 158.682 25.0895C159.334 24.8439 159.491 24.6207 159.491 23.9287V22.3216C159.469 21.6743 159.199 21.4511 158.547 21.6073C158.053 21.7412 157.581 21.8528 157.087 21.9645C155.581 22.3216 154.008 22.3886 152.48 22.1207C150.952 21.8305 149.918 20.96 149.514 19.4421C149.402 18.9957 149.312 18.5493 149.267 18.0805C149.379 18.0805 149.491 18.0805 149.581 18.1252C151.064 18.393 152.57 18.5046 154.076 18.393ZM149.379 14.8216C149.536 13.9511 149.739 13.1028 150.278 12.3886C151.109 11.2948 152.255 10.9823 153.559 11.1162C153.671 11.1162 153.761 11.1609 153.873 11.1609C155.446 11.4064 155.828 12.6564 155.536 13.8618C155.311 14.7546 154.57 15.0895 153.738 15.2457C153.289 15.335 152.817 15.3796 152.345 15.3573C151.424 15.335 150.525 15.268 149.626 15.1341C149.424 15.1118 149.334 15.0225 149.379 14.8216Z" fill="#BEBDC1"/>
</g>
<defs>
<clipPath id="clip0_104_2252">
<rect width="180" height="55" fill="white"/>
</clipPath>
</defs>
</svg>
