<svg width="180" height="67" viewBox="0 0 180 67" fill="none" xmlns="http://www.w3.org/2000/svg">
<g clip-path="url(#clip0_104_2246)">
<path d="M167.256 60.0123C167.256 63.4252 169.238 65.1754 171.65 65.1754C174.061 65.1754 176.036 63.4252 176.036 60.0123C176.036 56.688 174.061 54.9379 171.65 54.9379C169.238 54.9379 167.256 56.688 167.256 60.0123ZM177.85 64.913H179.916V66.6632H176.036V64.7382C175.266 65.9625 173.544 66.9255 171.478 66.9255C167.773 66.9255 165.362 63.95 165.362 60.0123C165.362 56.0758 167.773 53.1002 171.478 53.1002C173.452 53.1003 175.094 53.9759 175.955 55.2876V49.8635L173.889 49.8634V48.1133H177.85V64.913Z" fill="#BEBDC1"/>
<path d="M159.328 64.9135H161.396V66.6637L155.281 66.6637V64.9135H157.348V55.1132H155.281V53.4505H159.156V55.2881C159.931 53.8889 161.827 52.5759 164.41 53.4505V55.3755C161.31 54.501 159.328 56.1637 159.328 59.2256V64.9135Z" fill="#BEBDC1"/>
<path d="M103.869 19.7604C100.424 21.0722 98.0977 23.3482 98.0977 23.3482C98.0173 22.2102 97.7533 21.0722 97.4088 20.1976C97.4088 20.1976 98.534 18.0103 101.803 15.7353C105.333 13.2856 109.38 12.5859 109.38 12.5859C110.243 14.4223 110.845 16.3475 111.104 18.36C111.104 18.36 108.175 18.0977 103.869 19.7604Z" fill="#BEBDC1"/>
<path d="M101.373 12.5096C98.0196 15.8339 96.8141 19.1593 96.8141 19.1593C96.2056 18.1088 95.4363 17.2343 94.4031 16.5335C94.4031 16.5335 95.689 12.5971 97.6752 9.70897C99.65 6.73449 102.925 4.37207 102.925 4.37207C104.561 5.59639 105.938 7.08424 107.144 8.65954C107.144 8.65954 103.872 10.1462 101.374 12.5096H101.373Z" fill="#BEBDC1"/>
<path d="M95.5196 8.38664C93.9697 12.3231 93.6252 16.0858 93.6252 16.0858C92.5919 15.5611 91.306 15.1238 90.1808 15.0364C90.1808 15.0364 90.1004 11.2737 90.9615 7.33617C91.903 2.78639 92.9363 0.0742188 92.9363 0.0742188C94.9226 0.249112 96.817 0.861264 98.6196 1.64948C98.6196 1.64948 96.5529 5.67341 95.5196 8.38664Z" fill="#BEBDC1"/>
<path d="M101.022 33.0715C96.8067 31.0591 92.5816 31.4963 92.5816 31.4963C94.1316 30.8841 95.4289 29.9222 96.3704 28.6967C96.3704 28.6967 100.079 28.2594 102.917 28.7841C107.309 29.7461 109.203 31.2338 109.203 31.2338C108.342 33.0714 107.223 34.8216 105.845 36.3094C105.845 36.3094 104.123 34.5594 101.022 33.0715Z" fill="#BEBDC1"/>
<path d="M104.221 26.674C99.999 26.4991 97.0714 27.6371 97.0714 27.6371C97.588 26.674 97.9325 25.5372 98.0244 24.3991C98.0244 24.3991 101.464 22.474 104.565 22.0368C108.871 21.4247 111.369 22.2992 111.369 22.2992C111.283 24.3117 111.025 26.3241 110.422 28.2492C110.422 28.2492 107.665 26.8489 104.221 26.674Z" fill="#BEBDC1"/>
<path d="M75.6209 19.7604C79.0664 21.0722 81.3925 23.3482 81.3925 23.3482C81.4729 22.2102 81.737 21.0722 82.0814 20.1976C82.0814 20.1976 80.9562 18.0103 77.6876 15.7353C74.157 13.2856 70.1098 12.5859 70.1098 12.5859C69.2476 14.4223 68.6448 16.3475 68.3865 18.36C68.3865 18.36 71.3153 18.0977 75.6209 19.7604Z" fill="#BEBDC1"/>
<path d="M78.1169 12.5096C81.4706 15.8339 82.6762 19.1593 82.6762 19.1593C83.2847 18.1088 84.0539 17.2343 85.0872 16.5335C85.0872 16.5335 83.8013 12.5971 81.815 9.70897C79.8403 6.73449 76.5656 4.37207 76.5656 4.37207C74.9296 5.59639 73.5519 7.08424 72.3462 8.65954C72.3462 8.65954 75.6184 10.1462 78.1167 12.5096H78.1169Z" fill="#BEBDC1"/>
<path d="M83.9706 8.38664C85.5206 12.3231 85.865 16.0858 85.865 16.0858C86.8983 15.5611 88.1842 15.1238 89.3094 15.0364C89.3094 15.0364 89.3898 11.2737 88.5287 7.33617C87.5872 2.78639 86.554 0.0742188 86.554 0.0742188C84.5676 0.249112 82.6732 0.861264 80.8706 1.64948C80.8706 1.64948 82.9374 5.67341 83.9706 8.38664Z" fill="#BEBDC1"/>
<path d="M78.4687 33.0715C82.6836 31.0591 86.9086 31.4963 86.9086 31.4963C85.3587 30.8841 84.0613 29.9222 83.1198 28.6967C83.1198 28.6967 79.4114 28.2594 76.5732 28.7841C72.1817 29.7461 70.2871 31.2338 70.2871 31.2338C71.1482 33.0714 72.2676 34.8216 73.6454 36.3094C73.6454 36.3094 75.3676 34.5594 78.4687 33.0715Z" fill="#BEBDC1"/>
<path d="M75.2695 26.674C79.4912 26.4991 82.4188 27.6371 82.4188 27.6371C81.9022 26.674 81.5577 25.5372 81.4659 24.3991C81.4659 24.3991 78.026 22.474 74.9249 22.0368C70.6195 21.4247 68.1211 22.2992 68.1211 22.2992C68.2072 24.3117 68.4655 26.3241 69.0683 28.2492C69.0683 28.2492 71.825 26.8489 75.2695 26.674Z" fill="#BEBDC1"/>
<path d="M89.7363 36.3953C95.8559 36.3953 98.531 41.732 98.531 41.732C100.425 40.8575 102.148 39.8069 103.778 38.4065C103.778 38.4065 98.6113 31.8442 89.7361 31.8442C80.9528 31.8442 75.7898 38.4065 75.7898 38.4065C77.3398 39.8069 79.1493 40.8574 81.0448 41.732C81.0448 41.732 83.7084 36.3951 89.7361 36.3953H89.7363Z" fill="#BEBDC1"/>
<path d="M4.30666 50.0442V57.9194H7.49269C10.9382 57.9194 12.4882 56.519 12.4882 53.9819C12.4882 51.4446 11.0243 50.0443 7.49269 50.0443L4.30666 50.0442ZM4.30666 64.8314H6.54558V66.669H1.75781e-05V64.8314H2.23894L2.23893 49.9567H0V48.2065L7.49268 48.2066C11.6271 48.2066 14.4687 50.0442 14.4687 53.9817C14.4687 57.9193 11.6271 59.7558 7.49268 59.7558H4.30664L4.30666 64.8314Z" fill="#BEBDC1"/>
<path d="M26.5253 59.3141C26.5253 56.8644 24.7171 54.9392 22.2199 54.9392C19.7228 54.9392 17.9133 56.8642 17.9133 59.3141H26.5253ZM28.0765 62.9019C27.4737 65.1767 25.4058 66.9268 22.2198 66.9268C18.3436 66.9268 15.9326 64.477 15.9326 60.0136C15.9326 55.8148 18.4298 53.1016 22.2198 53.1016C26.3531 53.1016 28.9374 56.3396 28.4208 61.0643L17.9131 61.0642C18.0854 63.0767 19.4643 65.1766 22.2198 65.1768C24.028 65.1768 25.3197 64.3886 26.0086 62.902L28.0765 62.9019Z" fill="#BEBDC1"/>
<path d="M35.1387 64.914H37.2065V66.6642L31.0916 66.6642V64.914H33.1582V55.1137H31.0916V53.451H34.9665V55.2886C35.7415 53.8894 37.6371 52.5764 40.2204 53.451V55.376C37.1205 54.5015 35.1387 56.1642 35.1387 59.2261V64.914Z" fill="#BEBDC1"/>
<path d="M55.3712 64.9138H57.4379L57.4379 66.664H51.4089V64.9138H53.4767L53.4766 59.3135C53.4766 56.2516 51.6671 54.9386 49.6005 54.9386C47.62 54.9386 45.8978 56.339 45.8978 59.4884V64.9138H47.9645V66.664H41.9355V64.9138H44.0022V55.1135H41.9355V53.4508L45.8117 53.4508V55.2884C46.5006 54.239 47.9645 53.1885 50.0312 53.1885C52.8739 53.1885 55.3712 54.8512 55.3712 59.3136V64.9138Z" fill="#BEBDC1"/>
<path d="M65.5489 65.1767C68.1322 65.1767 69.9417 63.339 69.9417 60.0136C69.9417 56.6893 68.1322 54.9392 65.5489 54.9392C63.0518 54.9392 61.1574 56.6893 61.1574 60.0136C61.1574 63.339 63.0518 65.1767 65.5491 65.1767H65.5489ZM65.5489 53.1016C69.5971 53.1016 71.9222 56.0773 71.9222 60.0136C71.9222 64.0386 69.5971 66.9268 65.5489 66.9268C61.5878 66.9268 59.2617 64.0387 59.2617 60.0136C59.2617 56.0771 61.5878 53.1016 65.5489 53.1016Z" fill="#BEBDC1"/>
<path d="M76.131 60.0123C76.131 63.4252 78.1127 65.1753 80.5248 65.1753C82.9358 65.1753 84.9107 63.4252 84.9107 60.0123C84.9107 56.688 82.936 54.9379 80.5248 54.9379C78.1126 54.9379 76.131 56.688 76.131 60.0123ZM86.7248 64.913H88.7914V66.6632H84.9107V64.7382C84.1415 65.9625 82.4192 66.9255 80.3527 66.9255C76.6478 66.9255 74.2366 63.95 74.2366 60.0123C74.2366 56.0758 76.6476 53.1002 80.3527 53.1002C82.3274 53.1003 83.9694 53.9759 84.8304 55.2876V49.8635L82.7637 49.8634V48.1133H86.7248V64.913Z" fill="#BEBDC1"/>
<path d="M101.795 50.0442V56.8688H106.008C108.764 56.8688 109.889 55.5559 109.889 53.4559C109.889 51.4444 108.764 50.0442 106.008 50.0442H101.795ZM97.4893 48.1191H106.008C109.453 48.1191 111.956 50.0442 111.956 53.4559C111.956 56.4316 110.142 58.1818 107.478 58.7064L110.406 64.8315H112.817V66.6691H109.028L105.239 58.7938H101.795V64.8315H103.77V66.6691L97.4894 66.6691V64.8314H99.7284L99.7283 49.9567H97.4894L97.4893 48.1191Z" fill="#BEBDC1"/>
<path d="M117.035 50.6481H119.194V48.1108H117.035V50.6481ZM119.194 64.9106H121.26V66.6608H115.141V64.9106H117.207V55.1103H115.141V53.4476H119.194V64.9106Z" fill="#BEBDC1"/>
<path d="M135.65 61.8497C134.961 64.8255 132.975 66.9254 129.359 66.9254C125.398 66.9254 123.067 64.0373 123.067 60.0121C123.067 56.0756 125.398 53.1001 129.359 53.1001C131.253 53.1001 132.975 54.0632 133.756 55.2875V53.4499H135.559V58.2632H133.492C132.895 56.4256 131.678 54.9377 129.359 54.9377C126.856 54.9377 124.961 56.6879 124.961 60.0121C124.961 63.3376 126.856 65.1752 129.359 65.1752C131.598 65.1752 133.067 63.7748 133.664 61.8497H135.65Z" fill="#BEBDC1"/>
<path d="M139.957 60.0121C139.957 63.425 141.851 65.1752 144.262 65.1752C146.673 65.1752 148.648 63.425 148.648 60.0121C148.648 56.6879 146.674 54.9377 144.262 54.9377C141.851 54.9377 139.957 56.6879 139.957 60.0121ZM148.568 53.4499L152.529 53.4499V55.1126H150.462V64.9129H152.529V66.6631H148.568V64.738C147.787 66.0498 146.065 66.9254 144.09 66.9254C140.382 66.9254 137.971 63.9498 137.971 60.0121C137.971 56.0756 140.382 53.1001 144.09 53.1001C146.065 53.1001 147.787 53.9758 148.568 55.2875L148.568 53.4499Z" fill="#BEBDC1"/>
</g>
<defs>
<clipPath id="clip0_104_2246">
<rect width="180" height="67" fill="white"/>
</clipPath>
</defs>
</svg>
