<svg width="180" height="52" viewBox="0 0 180 52" fill="none" xmlns="http://www.w3.org/2000/svg">
<g clip-path="url(#clip0_104_2243)">
<path d="M138.77 0.65902V10.4682H151.834C151.834 10.4682 151.755 0.65902 151.834 0.65902H158.247V25.1822H151.834V14.392H138.77V25.182H132.357V0.659254H138.77M77.5815 0.65902V4.82782H67.6808V25.182H61.1886V4.82782H51.3692V0.65902H77.5815ZM102.657 25.1822H95.4349L93.325 19.8688H81.2331L79.1233 25.182H71.9819L83.3433 0.65902H91.2149L102.657 25.1822ZM87.3197 4.82782L82.7752 15.945H91.7841L87.3197 4.82782ZM163.364 25.1822V0.658786H169.856V25.1822H163.364ZM18.0158 0.65902V10.4682H31.0003V0.65902H37.4923V25.1822H31.0003V14.392H18.0158V25.182H11.5236C11.5236 25.182 11.6049 0.65902 11.5236 0.65902H18.0158ZM42.6049 25.1822V0.658786H49.0161V25.1822H42.6049ZM102.414 18.3977C101.846 16.6808 101.521 14.9644 101.521 13.1659C101.521 10.5501 102.008 8.09794 103.226 5.97247C104.443 3.84746 106.392 2.21252 108.745 1.31314C110.935 0.495901 113.365 0.00537109 115.89 0.00537109C118.809 0.00537109 121.57 0.659254 124.005 1.72199C126.35 2.78473 128.142 4.90996 128.626 7.44405C128.705 7.93435 128.784 8.42464 128.874 8.99709H122.134C122.055 8.3432 121.976 7.68908 121.728 7.11711C121.244 5.72743 120.105 4.6647 118.73 4.25585C117.829 4.01058 116.859 3.84723 115.89 3.84723C114.752 3.84723 113.692 4.01058 112.723 4.41943C111.016 4.99141 109.718 6.29941 109.15 8.01603C108.582 9.56929 108.257 11.3674 108.257 13.1659C108.257 14.6372 108.5 16.1086 108.906 17.4166C109.393 19.2149 110.692 20.6862 112.396 21.3404C113.534 21.749 114.673 21.9942 115.89 21.9942C116.938 21.9942 117.919 21.8309 118.888 21.5037C120.105 21.0951 121.165 20.1957 121.728 18.9696C122.055 18.1524 122.213 17.253 122.213 16.3539H129.032C128.953 17.0897 128.874 17.9071 128.705 18.6427C128.142 21.0953 126.44 23.1384 124.163 24.0378C121.65 25.1822 118.809 25.7544 115.89 25.7544C113.613 25.7544 111.422 25.4275 109.312 24.7738C106.228 23.7923 103.469 21.5037 102.414 18.3977ZM5.76224 32.0496L0 32.539V33.437H0.243956C2.51553 33.6834 2.51553 33.6834 2.51553 35.4V47.498H6.00527V32.0496H5.76224ZM17.9345 36.6259C15.8246 36.6259 14.5261 38.0984 13.9582 38.9966V36.5444L13.7147 36.6263L9.0891 37.3619V38.1782H9.25127C10.712 38.2601 11.0368 38.5063 11.0368 39.8972V47.4985H13.9582V41.9388C13.9582 40.4691 15.3379 38.5061 16.7986 38.5061C18.1782 38.5061 18.2593 39.7324 18.2593 41.6126V47.4976H21.1807V39.8965C21.1807 37.7705 20.0446 36.6259 17.9345 36.6259ZM29.2961 40.8766C28.1597 40.3044 27.186 39.815 27.186 38.9966C27.186 38.0984 28.241 38.016 28.728 38.016C29.9452 38.016 31.0003 38.6708 31.4873 38.9138L31.8929 39.243V37.0336L31.5684 36.954C31.0005 36.8721 30.0266 36.6259 28.8904 36.6259C26.2125 36.6259 24.5083 37.7705 24.5083 39.815C24.5083 41.5307 26.2125 42.4291 27.7545 43.1649C28.8907 43.7369 30.0268 44.227 30.0268 45.1273C30.0268 45.9457 29.2963 46.3536 28.0791 46.3536C26.6995 46.3536 25.5633 45.6995 24.9142 45.2913L24.5896 45.0451V47.334H24.7518C25.4012 47.4978 26.456 47.7438 27.998 47.7438C30.9194 47.7438 32.705 46.5177 32.705 44.4729C32.7043 42.5113 30.919 41.6128 29.2961 40.8766ZM42.118 36.6259C41.0629 36.6259 40.0081 37.1164 39.0343 38.0984V36.5444L38.7909 36.6259L34.1652 37.3617V38.178H34.4087C35.7883 38.2599 36.1129 38.5061 36.1129 39.8969V51.9947H39.0343V46.5179C39.5213 47.172 40.414 47.7442 42.0369 47.7442C45.0396 47.7442 46.6625 45.7816 46.6625 42.021C46.6625 38.5878 45.0394 36.6259 42.118 36.6259ZM41.3064 38.2601C43.2541 38.2601 43.4976 40.3865 43.4976 42.021C43.4976 44.7994 42.7671 46.19 41.3064 46.19C39.44 46.19 39.0343 44.3917 39.0343 42.9215V41.9393C39.0343 40.8768 39.2776 38.2601 41.3064 38.2601ZM48.6913 37.3617V38.178H48.8535C50.3142 38.2599 50.639 38.5061 50.639 39.8969V47.4983H53.4793V36.5444L53.3172 36.6263L48.6913 37.3617ZM52.0997 35.3181C53.0734 35.3181 53.8852 34.5814 53.8852 33.6832C53.8852 32.8648 53.0737 32.1315 52.0997 32.1315C51.1257 32.1315 50.3142 32.8648 50.3142 33.6832C50.3142 34.5814 51.126 35.3181 52.0997 35.3181ZM65.7334 38.9966V36.7897L65.4899 36.7078C65.084 36.6259 64.597 36.6259 64.1102 36.6259C62.4873 36.6259 61.5947 37.8517 61.1888 38.752V36.544L60.9455 36.6259L56.3199 37.3614V38.1777H56.4821C57.9428 38.2596 58.2674 38.5058 58.2674 39.8967V47.498H61.1888V42.0208C61.1888 41.1226 61.5134 38.9964 64.1916 38.9964C64.5161 38.9964 64.922 39.0783 65.2466 39.1597L65.7336 39.3243L65.7334 38.9966ZM77.1758 41.0406C77.1758 38.0984 75.5529 36.6259 72.388 36.6259C68.7359 36.6259 66.9508 38.3425 66.9508 41.8567C66.9508 45.5357 69.3042 47.744 73.2807 47.744C74.4668 47.7422 75.6449 47.5491 76.7704 47.172L76.9326 47.0901V45.7L76.6891 45.7819C76.2021 45.9459 75.3905 46.1898 74.4168 46.1898C71.3332 46.1898 70.1157 43.5757 70.1157 41.2028H77.1761V41.0409L77.1758 41.0406ZM72.3067 37.7708C73.8487 37.7708 74.2544 38.914 74.2544 39.9767H70.1157C70.1968 39.16 70.6025 37.7708 72.3067 37.7708ZM103.714 36.6259C101.521 36.6259 100.304 37.9341 99.7359 38.9135V31.6384H99.4924L94.8668 32.2923V33.111H95.0301C96.4897 33.111 96.8157 33.4367 96.8157 34.9093V47.4978H99.7359V42.1027C99.7359 40.0579 101.197 38.5061 102.414 38.5061C104.037 38.5061 104.037 39.7324 104.037 40.7944V47.4978H106.959V40.4691C106.96 39.3247 106.96 36.6263 103.714 36.6263M120.026 41.0406C120.026 38.0984 118.403 36.6259 115.236 36.6259C111.584 36.6259 109.799 38.3425 109.799 41.8567C109.799 45.5357 112.152 47.744 116.048 47.744C117.829 47.744 119.136 47.334 119.621 47.172L119.779 47.0901V45.7L119.542 45.7819C119.046 45.9459 118.246 46.1898 117.265 46.1898C114.177 46.1898 112.96 43.5757 112.96 41.2028H120.027V41.0409L120.026 41.0406ZM115.078 37.7708C116.701 37.7708 117.107 38.914 117.107 39.9767H112.959C112.959 39.16 113.455 37.7708 115.078 37.7708ZM87.4008 33.52V36.8725H85.4543V38.178H87.4008V44.7194C87.4008 47.5799 89.1861 47.744 91.3773 47.744C91.9451 47.744 92.5134 47.6621 93.0813 47.5802H93.2448V46.2719H93.0002C92.7567 46.3539 92.4321 46.3538 92.1075 46.3538C90.4033 46.3538 90.322 45.8638 90.322 44.3917V38.1782H93.5692V36.8723H90.322V33.5198H87.4008M144.609 32.2926H141.69V43.8193C141.126 42.9213 134.149 32.2926 134.149 32.2926H127.409V33.1112L127.973 33.2757C129.765 33.5198 129.844 33.6017 129.844 35.3183V47.498H133.011V35.4C133.574 36.3006 140.968 47.498 140.968 47.498H144.778V32.2928L144.609 32.2926ZM157.841 41.0406C157.841 38.0984 156.218 36.6259 152.972 36.6259C149.399 36.6259 147.539 38.3425 147.539 41.8567C147.539 45.5357 149.895 47.744 153.862 47.744C155.575 47.744 156.951 47.334 157.435 47.172L157.604 47.0901V45.7L157.356 45.7819C156.872 45.9459 155.97 46.1898 155.001 46.1898C151.924 46.1898 150.785 43.5757 150.695 41.2847H157.841L157.841 41.0406ZM152.893 37.7708C154.437 37.7708 154.843 38.914 154.922 39.9767H150.695C150.785 39.16 151.27 37.7708 152.893 37.7708ZM173.823 33.52V36.8725H171.885V38.178H173.823V44.7194C173.823 47.5799 175.616 47.744 177.802 47.744C178.377 47.744 178.94 47.6621 179.504 47.5802H179.752V46.2719H179.425C179.188 46.3539 178.94 46.3538 178.614 46.3538C176.833 46.3538 176.754 45.8638 176.754 44.3917V38.1782H180V36.8723H176.754V33.5198H173.823M167.985 40.3046L170.983 36.8725H167.906L165.065 40.1413L162.552 36.8725H158.089V37.6877H158.326C159.791 37.8522 160.197 38.0986 161.087 39.3247L162.958 41.7771L159.949 45.2099H163.037L164.333 43.6552L167.252 47.498H170.667L165.223 40.3046H167.985Z" fill="#BEBDC1"/>
<path d="M173.823 33.5201H170.746L174.477 29.1865H177.565L173.823 33.5201Z" fill="#BEBDC1"/>
</g>
<defs>
<clipPath id="clip0_104_2243">
<rect width="180" height="52" fill="white"/>
</clipPath>
</defs>
</svg>
