<svg width="180" height="36" viewBox="0 0 180 36" fill="none" xmlns="http://www.w3.org/2000/svg">
<g clip-path="url(#clip0_104_2240)">
<path fill-rule="evenodd" clip-rule="evenodd" d="M175.463 27.3585C175.572 28.612 176.565 30.2072 178.284 30.2072H179.29C179.68 30.2072 180 29.8843 180 29.4902V7.13959H179.996C179.975 6.76306 179.667 6.46148 179.29 6.46148H176.173C175.796 6.46148 175.488 6.76306 175.467 7.13959H175.463V8.95571C173.553 6.57746 170.542 5.59033 167.522 5.59033C160.657 5.59033 155.093 11.2155 155.093 18.1549C155.093 25.0947 160.657 30.72 167.522 30.72V30.7207C170.542 30.7207 173.833 29.5363 175.463 27.3556L175.463 27.3585ZM167.534 26.3225C163.168 26.3225 159.629 22.6662 159.629 18.1549C159.629 13.6445 163.168 9.98788 167.534 9.98788C171.899 9.98788 175.438 13.6445 175.438 18.1549C175.438 22.6662 171.899 26.3225 167.534 26.3225Z" fill="#BEBDC1"/>
<path fill-rule="evenodd" clip-rule="evenodd" d="M151.151 28.1275L151.15 16.562H151.15C151.15 10.0426 147.081 5.64453 140.593 5.64453C137.496 5.64453 134.957 7.45493 134.061 9.01009C133.867 7.79408 133.228 6.51588 131.248 6.51588H130.238C129.848 6.51588 129.529 6.839 129.529 7.23328V27.4147C129.529 27.4153 129.529 27.4169 129.529 27.4178V29.5856H129.533C129.554 29.9616 129.862 30.2636 130.239 30.2636H133.356C133.404 30.2636 133.451 30.2578 133.496 30.2489C133.517 30.2449 133.536 30.2367 133.556 30.2309C133.579 30.2238 133.603 30.2182 133.625 30.2091C133.653 30.1975 133.678 30.1818 133.704 30.1673C133.717 30.1595 133.73 30.154 133.742 30.1456C133.773 30.1255 133.802 30.1011 133.829 30.0762C133.834 30.0715 133.839 30.0685 133.844 30.0644C133.875 30.034 133.903 30.0005 133.928 29.9658C133.928 29.9653 133.928 29.9653 133.928 29.9653C134.007 29.8569 134.054 29.7265 134.062 29.5856H134.066V16.3827C134.066 12.8813 136.874 10.0426 140.338 10.0426C143.802 10.0426 146.61 12.8813 146.61 16.3827L146.613 27.4186L146.613 27.4147C146.613 27.4246 146.615 27.4345 146.615 27.4451V29.5856H146.619C146.64 29.9616 146.948 30.2636 147.325 30.2636H150.442C150.49 30.2636 150.537 30.2578 150.582 30.2489C150.6 30.2455 150.617 30.238 150.635 30.2329C150.661 30.2255 150.687 30.2189 150.712 30.2091C150.737 30.1984 150.76 30.1835 150.785 30.1698C150.799 30.1615 150.815 30.1553 150.829 30.1456C150.858 30.1267 150.884 30.1036 150.91 30.0807C150.916 30.0745 150.924 30.07 150.93 30.0636C150.96 30.0349 150.986 30.0038 151.01 29.9713C151.012 29.9687 151.014 29.9667 151.015 29.9644C151.092 29.8569 151.139 29.7275 151.147 29.5876C151.147 29.5867 151.148 29.5856 151.148 29.5856H151.152V28.1278L151.151 28.1275Z" fill="#BEBDC1"/>
<path fill-rule="evenodd" clip-rule="evenodd" d="M118.683 27.3585C118.792 28.612 119.785 30.2072 121.504 30.2072H122.51C122.9 30.2072 123.219 29.8843 123.219 29.4902V7.13959H123.215C123.195 6.76306 122.887 6.46148 122.51 6.46148H119.393C119.016 6.46148 118.708 6.76306 118.687 7.13959H118.683V8.95571C116.773 6.57746 113.761 5.59033 110.741 5.59033C103.877 5.59033 98.3125 11.2155 98.3125 18.1549C98.3125 25.0947 103.877 30.72 110.741 30.72V30.7207C113.761 30.7207 117.053 29.5363 118.683 27.3556L118.683 27.3585ZM110.753 26.3225C106.388 26.3225 102.849 22.6662 102.849 18.1549C102.849 13.6445 106.388 9.98788 110.753 9.98788C115.119 9.98788 118.658 13.6445 118.658 18.1549C118.658 22.6662 115.119 26.3225 110.753 26.3225Z" fill="#BEBDC1"/>
<path fill-rule="evenodd" clip-rule="evenodd" d="M79.8761 24.1578C81.9572 25.6152 84.229 26.323 86.412 26.323C88.4918 26.323 90.6419 25.2332 90.6419 23.3361C90.6419 20.8034 85.9568 20.4094 83.0131 19.398C80.069 18.3867 77.5334 16.2961 77.5334 12.9105C77.5334 7.72995 82.0996 5.59033 86.3615 5.59033C89.0618 5.59033 91.848 6.49048 93.6543 7.77993C94.2764 8.25642 93.8975 8.80348 93.8975 8.80348L92.1733 11.2929C91.9794 11.5733 91.6407 11.8156 91.1541 11.5121C90.6678 11.2088 88.9616 9.98802 86.3615 9.98802C83.7612 9.98802 82.1948 11.2019 82.1948 12.7066C82.1948 14.5108 84.2306 15.0783 86.6151 15.6933C90.7704 16.8256 95.3033 18.1865 95.3033 23.3361C95.3033 27.9007 91.0798 30.7214 86.412 30.7214C82.8747 30.7214 79.8631 29.7019 77.3372 27.8283C76.811 27.2959 77.1786 26.8018 77.1786 26.8018L78.8943 24.3249C79.2434 23.8618 79.6836 24.0232 79.8761 24.1578Z" fill="#BEBDC1"/>
<path fill-rule="evenodd" clip-rule="evenodd" d="M67.8912 27.3585C68.0003 28.612 68.9928 30.2072 70.7123 30.2072H71.7185C72.1084 30.2072 72.4281 29.8843 72.4281 29.4902V7.13959H72.4238C72.4034 6.76306 72.0954 6.46148 71.7185 6.46148H68.6009C68.224 6.46148 67.916 6.76306 67.895 7.13959H67.8912V8.95571C65.9812 6.57746 62.9696 5.59033 59.9498 5.59033C53.0855 5.59033 47.5208 11.2155 47.5208 18.1549C47.5208 25.0947 53.0855 30.72 59.9498 30.72V30.7207C62.9696 30.7207 66.2607 29.5363 67.8908 27.3556L67.8912 27.3585ZM59.962 26.3225C55.5963 26.3225 52.0569 22.6662 52.0569 18.1549C52.0569 13.6445 55.5963 9.98788 59.962 9.98788C64.3275 9.98788 67.8663 13.6445 67.8663 18.1549C67.8663 22.6662 64.3275 26.3225 59.962 26.3225Z" fill="#BEBDC1"/>
<path fill-rule="evenodd" clip-rule="evenodd" d="M30.0955 19.0098C25.4759 19.0098 21.7312 22.7925 21.7312 27.4589C21.7312 32.1251 25.4759 35.9078 30.0955 35.9078C34.715 35.9078 38.4597 32.1251 38.4597 27.4589C38.4597 22.7925 34.715 19.0098 30.0955 19.0098ZM8.36429 19.0105C3.74486 19.0105 0 22.7925 0 27.4589C0 32.1251 3.74486 35.9078 8.36429 35.9078C12.9839 35.9078 16.729 32.1251 16.729 27.4589C16.729 22.7925 12.9839 19.0105 8.36429 19.0105ZM27.594 8.4486C27.594 13.1151 23.8493 16.8981 19.2299 16.8981C14.6103 16.8981 10.8656 13.1151 10.8656 8.4486C10.8656 3.78305 14.6103 0 19.2299 0C23.8493 0 27.594 3.78305 27.594 8.4486Z" fill="#BEBDC1"/>
</g>
<defs>
<clipPath id="clip0_104_2240">
<rect width="180" height="36" fill="white"/>
</clipPath>
</defs>
</svg>
