<svg width="73" height="81" viewBox="0 0 73 81" fill="none" xmlns="http://www.w3.org/2000/svg">
<mask id="mask0_1_167" style="mask-type:luminance" maskUnits="userSpaceOnUse" x="0" y="0" width="73" height="81">
<path d="M72.9993 0H0V81H72.9993V0Z" fill="white"/>
</mask>
<g mask="url(#mask0_1_167)">
<path d="M9.40191 71.2148C9.28247 70.8329 8.93364 69.9746 8.83863 69.3409C8.62893 67.9373 9.36051 67.013 10.0324 66.8013C10.7863 66.5903 11.0809 66.9701 11.3727 67.8529C11.75 69.1972 11.7921 70.9588 11.6652 73.4807C11.5003 76.9256 9.78195 81.0859 5.51055 80.9994C1.82346 80.9184 0.191993 78.5231 0.0223309 74.8686C-0.0577494 73.1458 0.0650858 71.4237 0.776308 68.9883C1.15364 67.6841 1.49024 67.2199 2.66091 66.9701C3.58115 66.8013 3.49836 67.7665 3.29002 68.9046C2.83125 71.4237 2.61815 72.6401 2.78782 75.4982C2.95205 78.5231 4.33717 79.7 5.84512 79.7C8.10705 79.7436 9.11145 77.8534 9.53221 75.1198C9.86407 72.9362 9.61365 71.8859 9.40191 71.2148ZM57.6293 74.1982C58.5102 74.1982 58.7626 75.243 58.5522 75.876C58.3418 76.505 57.5892 77.2224 56.4172 77.4313C56.1648 76.7997 56.0385 74.1982 57.6293 74.1982ZM41.2562 75.6221C41.2562 74.9108 40.8769 74.322 40.4201 74.322C40.0387 74.322 39.1626 74.7406 39.1626 76.0857C39.1626 77.1393 39.5359 77.639 39.7069 77.8534C40.9183 77.4735 41.2562 76.4627 41.2562 75.6221ZM28.2276 67.0538C28.1685 66.3799 27.6419 65.9212 26.9293 65.9212C26.1346 65.9212 25.3861 66.7577 25.4655 67.8087C25.5164 68.5016 25.9236 69.0713 26.7237 69.0713C27.6419 69.072 28.3117 68.0217 28.2276 67.0538ZM35.0392 69.5213C34.9665 68.3464 34.6829 67.8162 34.0538 67.8597C33.2197 67.9101 32.8342 70.5423 33.0046 73.3092C33.1132 75.1143 33.3812 75.3927 33.631 75.375C34.0924 75.3471 35.1993 72.1221 35.0392 69.5213ZM62.8236 73.9436C62.3045 76.1034 60.7307 79.2807 58.3826 79.2807C57.839 79.2807 56.8753 79.069 56.8753 78.5231C56.8753 77.9344 60.5637 77.8534 60.5637 75.0367C60.5637 73.9878 59.6007 72.5155 58.1756 72.5155C56.291 72.5155 54.4525 74.5759 54.4525 77.432C54.4525 79.9927 56.0385 80.8333 57.6299 80.8333C60.3954 80.8333 62.071 78.5633 62.9499 76.6744C63.3706 77.935 63.6177 80.8333 64.6689 80.8333C65.0862 80.8333 65.3815 80.623 65.8843 79.4904C67.1378 76.6738 68.3539 73.4392 70.0302 73.4392C70.6566 73.4392 70.2813 74.5759 71.7886 74.5759C72.4991 74.5759 72.9999 73.9878 72.9999 73.3126C72.9999 72.3454 72.1218 71.5919 70.7828 71.5919C66.8446 71.5919 66.0099 77.5157 65.3808 77.5157C64.3329 77.5157 64.6682 72.7681 63.9129 72.7681C63.2424 72.7674 62.9132 73.5685 62.8236 73.9436ZM29.3175 78.984C29.9452 78.984 31.025 78.7798 31.8746 77.415C31.3887 76.3327 31.0419 74.1457 30.9937 73.3494C30.744 69.2769 32.3083 65.4461 34.0205 65.3399C35.276 65.2636 36.2804 66.4555 36.3958 68.3866C36.7046 73.461 35.0195 75.5792 34.1759 77.4068C34.3184 78.1154 35.5169 79.3216 36.6475 79.3216C37.0649 79.3216 37.5698 79.1112 37.6967 78.9411C37.6126 78.6491 37.5271 78.2713 37.5271 77.7234C37.5271 74.7828 39.4124 72.3032 41.0465 72.3032C42.3448 72.3032 43.0988 74.0253 43.0988 75.162C43.0988 76.5043 41.9668 77.5988 40.2926 78.6491C40.5871 78.9411 41.1286 79.1534 41.5915 79.1534C43.981 79.1534 45.2311 76.2538 46.1567 73.606C46.3237 73.1009 46.6189 72.3882 47.2039 72.3882C48.209 72.3882 48.6297 79.0262 50.3006 79.0262C51.0152 79.0262 51.6002 77.5545 51.6002 76.4233C51.6002 75.582 51.307 75.4976 51.307 74.2792C51.307 72.9362 52.0196 71.8029 52.9853 71.8029C53.571 71.8029 53.7827 72.3882 53.7827 73.1009C53.7827 75.7902 51.8533 80.7905 49.0091 80.7905C46.8693 80.7905 47.0363 77.0931 46.283 77.0931C45.4414 77.0931 44.2687 80.832 40.1263 80.832C39.4531 80.832 38.7425 80.4964 38.1575 79.8225C37.1538 80.4964 36.3137 80.7905 35.35 80.7905C33.802 80.7905 33.1301 79.1936 32.5037 79.1936C31.7484 79.1936 30.913 80.832 28.3972 80.832C26.3871 80.832 26.0518 78.1461 25.3413 78.1461C24.7115 78.1461 23.7485 80.832 22.702 80.832C20.9403 80.832 20.567 76.1701 19.0143 76.1701C17.8002 76.1701 13.9624 80.9048 12.9207 80.7966C12.502 80.753 12.3255 80.4392 12.3696 80.0186C12.4287 79.4373 12.9275 77.8813 13.1297 77.1455C13.4684 75.8678 13.7792 74.4677 13.9529 74.0212C14.1253 73.5706 14.5902 73.2493 14.9634 73.284C15.1514 73.3017 15.2077 73.6536 15.2661 73.9443C15.4778 74.983 15.773 76.0421 16.1063 76.0421C16.6946 76.0421 18.6376 72.3025 19.7682 72.3025C21.1527 72.3025 21.3183 78.1855 23.2022 78.1855C23.832 78.1855 24.2941 77.4307 24.7115 76.5036C24.7543 74.9469 25.173 72.7252 26.4292 72.7252C27.3094 72.7252 27.7288 74.6978 27.0983 76.4226C27.0969 78.4796 28.4359 78.984 29.3175 78.984Z" fill="#BEBDC1"/>
</g>
<path d="M58.4913 13.1056C58.1805 13.1056 57.7353 13.1056 57.4903 12.6162C57.2894 12.2146 57.3573 11.5673 56.9792 11.278C57.3573 11.3889 57.757 11.3889 58.0678 11.3889C59.0695 11.3889 60.0264 10.6981 60.7607 10.6981C61.2445 10.6981 61.4006 11.0105 61.4006 11.3215C61.4013 12.3038 59.4265 13.1056 58.4913 13.1056ZM58.9799 15.6248C61.2893 15.6248 63.404 13.7747 63.404 12.1479C63.404 11.3889 63.047 10.7654 62.1356 10.6538C62.291 10.8546 62.3575 11.0105 62.3575 11.3672C62.3575 12.5937 60.4946 13.9537 58.4696 13.9537C57.7353 13.9537 57.5127 14.4656 57.5127 14.7331C57.5127 15.3579 58.1139 15.6248 58.9799 15.6248ZM58.8028 16.5614C59.0926 18.6783 62.291 21.5323 63.1577 21.4649C63.7372 21.4159 63.9591 18.7007 63.9591 16.5614C63.9591 15.3355 64.0263 14.3764 63.3809 14.1531C62.3568 16.2272 59.6708 16.6505 58.8028 16.5614Z" fill="#BEBDC1"/>
<path d="M8.77692 30.5828C9.53158 30.5828 9.37617 25.9454 10.5984 25.9454C10.8882 25.9454 10.9771 26.2353 10.9771 26.592C10.9771 27.6395 10.4654 29.1785 10.4654 30.0246C10.4654 30.4487 10.5767 30.5828 10.7769 30.5828C11.311 30.5828 12.2441 25.4771 13.1549 25.4771C13.444 25.4771 13.577 25.767 13.577 26.057C13.577 27.127 12.2224 30.203 12.2224 31.0722C12.2224 31.2063 12.2658 31.3172 12.3778 31.3172C12.9336 31.3172 14.0446 28.9104 14.3995 27.7069C14.5997 27.0821 14.8664 26.7472 15.1114 26.7472C15.3333 26.7472 15.5342 26.9929 15.5342 27.5061C15.5342 28.7096 14.4219 31.5405 13.444 33.4362C12.6893 34.9071 11.5112 37.0233 11.5112 38.2049C11.5112 38.8073 11.6205 39.4308 12.4878 40.1891C11.0653 40.0999 10.4878 39.9665 9.95505 38.8523C7.5764 43.5999 14.333 43.1323 12.0215 47.3436C11.5987 46.5874 8.2659 45.8067 8.2659 41.3932C8.2659 37.5814 11.5987 35.3522 11.5987 33.7704C11.5987 33.4586 11.4888 33.1911 11.1997 32.9461C10.4654 32.3205 10.443 31.8093 9.86547 31.8093C9.44403 31.8093 8.93098 32.7895 9.46507 33.6587C9.64356 33.9487 9.79897 34.127 9.79897 34.3945C9.79897 35.018 8.82036 36.6891 8.13221 36.6891C7.4427 36.6891 6.91064 34.9752 6.91064 32.2096C6.91064 29.7564 7.4651 27.2836 8.1546 27.2836C8.35413 27.2836 8.42063 27.417 8.42063 27.596C8.42063 27.8859 8.33241 28.4645 8.33241 29.4454C8.33241 30.4929 8.57672 30.5828 8.77692 30.5828Z" fill="#BEBDC1"/>
<path d="M14.4429 37.113C15.3774 37.113 16.1545 36.4207 16.1545 34.8851V32.6103C16.1545 31.7411 16.2216 30.7609 16.7998 30.0687C16.7327 30.3593 16.7327 30.6711 16.7327 30.9611C16.7327 32.8785 17.7988 34.1943 17.7988 36.0436C17.7988 36.7338 17.5986 37.1137 17.0666 37.1137C16.5549 37.1137 16.5996 36.6454 16.4877 36.6454C16.3994 36.6454 16.2657 36.9346 16.2657 37.2471C16.2657 37.7154 16.599 38.4505 17.5321 38.4505C18.3329 38.4505 18.9763 37.7154 18.9763 36.8904C18.9763 34.8858 17.4208 32.6553 17.4208 30.5159C17.4208 29.5793 17.6651 28.9558 17.8653 28.4644C17.8653 32.901 21.621 36.1328 21.621 37.9822C21.621 38.4063 21.3101 38.7411 20.8432 38.7411C20.3322 38.7411 20.0872 38.3389 20.0872 38.0264C20.0872 37.8706 20.0648 37.8263 19.9983 37.8263C19.866 37.8263 19.4656 38.2722 19.4656 38.8528C19.4656 39.5872 20.0648 40.4803 21.1764 40.4803C22.4421 40.4803 23.1316 39.4089 23.1316 38.4505C23.1316 36.111 18.5759 32.5661 18.5759 28.7775C18.5759 28.1301 18.6858 27.0826 19.1541 26.2808C16.2203 28.1744 15.3095 30.6942 15.3095 32.901C15.3095 34.8184 15.243 35.7755 14.2651 35.7755C13.7534 35.7755 13.6204 35.3085 13.4419 35.3085C13.3089 35.3085 13.2417 35.7094 13.2417 35.8204C13.2431 36.6447 13.8437 37.113 14.4429 37.113Z" fill="#BEBDC1"/>
<path d="M48.1139 12.0137C48.3962 11.8238 49.649 12.1247 51.2689 11.3215C51.4685 11.2119 51.6687 11.167 51.8465 11.167C52.6256 11.167 52.4254 12.058 53.1373 12.058C53.6917 12.058 54.405 11.5897 54.8278 11.5897C55.4901 11.5897 56.4463 13.6855 56.4463 14.6663C56.4463 15.8031 54.7382 16.4946 52.7145 16.4946C49.7603 16.4946 47.9802 13.9087 47.9802 12.2363C47.9809 12.1029 48.0481 12.058 48.1139 12.0137ZM52.9595 14.8447C53.9381 14.8447 54.6717 14.3988 54.6717 14.1306C54.6717 14.0428 54.5387 13.9754 54.2489 13.9754C53.9598 13.9754 53.3816 13.9537 52.2917 13.7746C51.3565 13.6188 50.6453 13.2621 50.3786 13.2621C50.2897 13.2621 50.2449 13.3063 50.2449 13.3731C50.2449 13.9537 51.3131 14.8447 52.9595 14.8447Z" fill="#BEBDC1"/>
<path d="M14.9105 45.5166C14.1776 45.6956 12.9988 46.8527 12.9988 48.6831C12.9988 50.866 15.3326 54.2333 19.1772 54.2333C22.4211 54.2333 23.2219 51.9816 23.2219 50.4644C23.2219 47.0991 21.1561 44.7358 18.4673 44.7358C17.0001 44.7358 15.6883 45.8059 15.6883 47.3877C15.6883 48.8607 16.7999 51.0668 19.4439 51.0668C20.6885 51.0668 21.4215 50.1737 21.4215 49.1514C21.4215 48.1474 20.5107 46.7663 19.1765 46.7663C18.7768 46.7663 18.4884 47.0311 18.4884 47.4565C18.4884 47.9901 19.2206 48.5265 20.1327 48.5265C20.354 48.5265 20.5324 48.4816 20.622 48.4367C20.6655 48.5054 20.6885 48.6157 20.6885 48.7048C20.6885 49.2181 20.1992 49.5305 19.4439 49.5305C18.3105 49.5305 17.2213 48.6837 17.2213 47.3435C17.2213 46.543 17.9108 45.9638 18.9105 45.9638C20.888 45.9638 22.0655 47.724 22.0655 49.4863C22.0655 51.0675 21.2002 51.983 19.4215 51.983C15.8654 51.9823 14.1335 48.7715 14.9105 45.5166Z" fill="#BEBDC1"/>
<path d="M40.2798 58.5774C41.3459 58.5774 41.2903 58.4882 41.6242 58.4882C41.9567 58.4882 41.9798 58.689 41.9798 58.8231C41.9798 59.3139 40.8899 59.9156 38.9564 59.9156C37.8231 59.9156 37.1336 59.3132 36.934 58.6448C35.8231 59.3581 34.1346 60.0048 32.4672 60.0048C27.9121 60.0048 26.7564 58.0192 25.3333 57.3747C24.244 56.8839 22.5773 57.843 20.2434 55.2346C20.5549 55.302 20.9777 55.3238 21.3109 55.3238C23.3543 55.3238 24.4436 54.3225 24.4436 52.7161C24.4436 52.5147 24.4212 52.2941 24.3988 52.094C25.0218 52.339 26.4449 53.4077 26.7788 55.302C26.8222 55.5253 27.733 55.7254 28.3112 55.7254C29.112 55.7254 30.134 55.3905 30.2894 54.0768C32.9565 53.8542 34.7576 52.2723 35.1356 50.2637C36.0898 50.5761 37.179 51.4453 37.4457 51.8925C37.8238 51.7591 38.2676 51.6917 38.7786 51.6917C39.4898 51.6917 40.2906 51.8258 41.2455 52.1158C41.2903 51.8258 41.3344 51.4691 41.7796 51.4691C42.446 51.4691 42.2682 52.2049 42.4908 52.6263C42.6021 52.8495 43.1586 52.983 43.1586 53.4295C43.1586 53.8542 42.801 54.0108 42.579 54.0108C42.4901 54.0108 42.3788 53.9883 42.3116 53.9665C41.8678 54.1224 41.8447 57.3304 39.9785 57.3304C38.6015 57.3304 37.3344 56.1937 36.778 54.7684C36.6225 54.345 36.2893 54.0768 35.9778 54.0768C35.6229 54.0768 35.4227 54.1442 35.0013 54.6125C33.8014 55.9262 31.8008 57.0629 29.3339 57.0629C28.5779 57.0629 27.9779 56.9948 27.8219 56.9948C27.7323 56.9948 27.7323 57.0173 27.7323 57.0391C27.7323 57.1956 28.4876 57.798 30.1326 57.798C34.0444 57.798 35.0006 55.5906 35.6222 55.5906C35.7125 55.5906 35.9772 55.5906 36.1326 55.948C37.0453 58.0866 39.0351 58.5774 40.2798 58.5774ZM38.5567 54.1224C38.5567 54.6132 38.9571 55.0148 39.4464 55.0148C39.9357 55.0148 40.3354 54.6132 40.3354 54.1224C40.3354 53.631 39.9357 53.2294 39.4464 53.2294C38.9571 53.2294 38.5567 53.631 38.5567 54.1224Z" fill="#BEBDC1"/>
<path d="M56.1581 42.9973C55.8466 42.9973 55.5134 43.2431 55.5134 43.8461C55.5134 44.5125 56.025 44.9373 56.3135 45.07C56.4696 45.1605 56.7146 45.2497 56.9568 45.2497C57.6022 45.2497 58.1146 45.07 58.1146 44.5343C58.1139 43.8461 57.1122 42.9973 56.1581 42.9973ZM53.7604 44.3784C53.2935 44.3784 50.7119 47.8335 49.0486 47.8335C48.6488 47.8335 48.3149 47.0759 48.3149 46.4987C48.3149 46.1863 48.5145 45.963 49.2277 45.8058C53.0492 44.9366 52.2036 42.0601 55.4679 42.0601C57.2677 42.0601 59.271 43.288 59.271 46.0508C59.271 48.9934 55.0953 52.6479 54.4723 52.6479C53.9606 52.6479 53.4048 51.9128 53.4048 51.4227C53.4048 51.2668 53.472 51.066 53.9165 50.8877C56.0474 50.0396 57.2683 48.0786 57.2683 47.0746C57.2683 46.8513 57.1577 46.6308 56.8686 46.6308C56.4913 46.6308 54.8734 50.3295 53.0709 50.3295C51.8242 50.3295 50.5565 49.1955 50.5565 48.6592C50.5565 47.7661 54.1608 46.1182 54.1608 44.8685C54.1601 44.3995 53.9382 44.3784 53.7604 44.3784Z" fill="#BEBDC1"/>
<path d="M9.77669 15.1571C9.77669 15.1571 9.13266 15.6465 8.33253 15.6465C7.37768 15.6465 6.62166 14.9339 6.62166 13.9306C6.62166 13.239 6.97728 12.5263 7.79912 12.169C7.7774 12.3031 7.7774 12.414 7.7774 12.5481C7.77672 13.8196 8.48794 14.7773 9.77669 15.1571ZM14.5326 19.4372C14.044 20.0158 13.5323 20.9973 13.5323 21.9999C13.5323 23.2034 14.2666 24.206 15.4 24.206C16.4885 24.206 17.0002 23.2701 17.0002 22.3124C17.0002 20.819 15.6443 19.7701 14.5326 19.4372ZM7.15508 20.3282C7.11301 20.397 7.0879 20.4848 7.0879 20.5739C7.0879 20.7747 7.31049 20.9973 7.50933 20.9973C7.68714 20.9973 7.79844 20.9531 7.88734 20.9531C8.42008 20.9531 9.02068 21.3315 9.88731 21.3315C10.3977 21.3315 10.9983 21.175 11.7536 20.7972C13.3538 19.994 13.9768 18.0105 13.9768 17.6756C13.9768 17.2516 13.6375 17.3074 13.3538 16.9174C13.0702 16.5287 13.1787 16.1849 12.9982 16.0032C12.8958 15.8991 12.5768 15.8923 12.1757 15.8473C12.042 15.833 11.8642 15.8249 11.6864 15.8249C10.9541 15.8249 10.0848 15.9154 9.1089 16.5389C7.18155 17.773 7.46522 19.8157 7.15508 20.3282ZM12.3773 17.564C12.5313 17.7743 12.9562 18.033 12.9562 18.1888C12.9562 18.4999 12.777 18.9022 12.4221 18.9022C11.6437 18.9022 11.022 17.7205 11.022 17.0508C11.022 16.6281 11.267 16.5838 11.5995 16.5838C11.7549 16.5838 11.8221 16.6063 11.9328 16.673C12.1323 16.7846 12.1323 17.2298 12.3773 17.564ZM10.3318 20.284C9.59889 20.284 8.79876 19.3705 8.79876 18.5448C8.79876 18.0997 9.13198 17.5415 9.37629 17.5415C9.46519 17.5415 9.50999 17.6089 9.5317 17.7655C9.66472 18.8573 10.3766 19.4821 11.0437 19.7932C11.1102 19.8374 11.155 19.8599 11.155 19.9041C11.155 20.0607 10.7322 20.284 10.3318 20.284ZM12.2219 14.6664C12.3325 14.309 12.4214 13.8645 12.4214 13.3731C12.4214 12.3038 11.9314 10.6763 10.4207 10.6763C9.55478 10.6763 8.9311 11.3672 8.9311 12.1921C8.9311 13.9537 10.6874 14.6664 12.2219 14.6664ZM6.46558 23.5825C6.46558 25.276 6.97728 26.0792 7.88802 26.0792C8.59924 26.0792 9.55478 25.566 10.6874 24.5851C9.82148 24.7859 9.1537 24.92 8.55445 24.92C7.75433 24.92 7.13269 24.6076 6.46558 23.5825ZM7.24398 21.5983C7.22227 21.7106 7.22227 21.8216 7.22227 21.9325C7.22227 22.9801 7.77672 23.56 8.51034 23.56C9.06411 23.56 9.71019 23.2258 10.2864 22.4893C10.0434 22.5336 9.75362 22.556 9.48691 22.556C8.66575 22.556 7.77672 22.3341 7.24398 21.5983ZM12.6888 21.2866C12.1764 21.42 11.1102 22.0442 11.1102 23.1584C11.1102 23.9603 11.7319 24.4742 12.5103 24.4742C12.9107 24.4742 13.1991 24.3843 13.3769 24.2509C12.7553 23.6492 12.5327 22.9801 12.5327 22.3124C12.5327 21.8434 12.5992 21.5541 12.6888 21.2866ZM13.4882 15.1789C13.4882 15.669 13.8879 16.0713 14.3766 16.0713C14.8659 16.0713 15.2663 15.6697 15.2663 15.1789C15.2663 14.6888 14.8659 14.2866 14.3766 14.2866C13.8879 14.2866 13.4882 14.6888 13.4882 15.1789ZM14.6433 17.1849C14.6433 17.6756 15.0443 18.0772 15.5343 18.0772C16.0223 18.0772 16.4227 17.6756 16.4227 17.1849C16.4227 16.6955 16.0223 16.2939 15.5343 16.2939C15.0437 16.2939 14.6433 16.6955 14.6433 17.1849Z" fill="#BEBDC1"/>
<path d="M49.3158 28.1294C49.3158 27.6842 49.7162 27.3051 50.1553 27.3051C50.6453 27.3051 51.0233 27.6842 51.0233 28.1294C51.0233 28.6419 50.6446 28.9993 50.1553 28.9993C49.7162 28.9993 49.3158 28.6419 49.3158 28.1294ZM41.5127 21.2641C41.5127 21.7542 41.9138 22.1558 42.4011 22.1558C42.8917 22.1558 43.2921 21.7542 43.2921 21.2641C43.2921 20.7747 42.891 20.3731 42.4011 20.3731C41.9138 20.3731 41.5127 20.7747 41.5127 21.2641ZM40.7581 24.4068C40.7581 25.0984 41.3342 25.6769 42.0244 25.6769C42.7126 25.6769 43.2921 25.0984 43.2921 24.4068C43.2921 23.7166 42.7126 23.136 42.0244 23.136C41.3342 23.136 40.7581 23.7166 40.7581 24.4068ZM43.5588 22.9801C43.5588 23.7391 44.1594 24.3401 44.9107 24.3401C45.666 24.3401 46.2687 23.7391 46.2687 22.9801C46.2687 22.2225 45.666 21.6208 44.9107 21.6208C44.1594 21.6208 43.5588 22.2225 43.5588 22.9801ZM43.6708 20.0825C43.6708 20.5515 44.0488 20.9313 44.511 20.9313C44.9779 20.9313 45.3559 20.5515 45.3559 20.0825C45.3559 19.6156 44.9772 19.2364 44.511 19.2364C44.0488 19.2364 43.6708 19.6156 43.6708 20.0825ZM47.6918 17.9438C47.6918 18.4108 48.0698 18.7899 48.5374 18.7899C49.0043 18.7899 49.383 18.4108 49.383 17.9438C49.383 17.4748 49.0043 17.0957 48.5374 17.0957C48.0698 17.0957 47.6918 17.4748 47.6918 17.9438ZM46.0237 20.6856C46.0237 21.4649 46.6684 22.1109 47.4468 22.1109C48.2259 22.1109 48.8713 21.4649 48.8713 20.6856C48.8713 19.9042 48.2266 19.2589 47.4468 19.2589C46.6684 19.2589 46.0237 19.9042 46.0237 20.6856ZM43.7366 25.9009C43.7366 26.3916 44.137 26.7919 44.6223 26.7919C45.1116 26.7919 45.5127 26.3916 45.5127 25.9009C45.5127 25.4101 45.1116 25.0092 44.6223 25.0092C44.137 25.0092 43.7366 25.4101 43.7366 25.9009ZM46.6467 24.1168C46.6467 24.6076 47.0464 25.0092 47.5371 25.0092C48.0257 25.0092 48.4261 24.6076 48.4261 24.1168C48.4261 23.6274 48.0257 23.2258 47.5371 23.2258C47.0464 23.2258 46.6467 23.6274 46.6467 24.1168ZM45.8242 27.2602C45.8242 28.1069 46.513 28.7985 47.3586 28.7985C48.2035 28.7985 48.8944 28.1069 48.8944 27.2602C48.8944 26.4134 48.2035 25.7219 47.3586 25.7219C46.513 25.7219 45.8242 26.4134 45.8242 27.2602ZM49.026 25.3645C49.026 25.9451 49.4936 26.4134 50.0677 26.4134C50.6459 26.4134 51.1129 25.9451 51.1129 25.3645C51.1129 24.7859 50.6459 24.3176 50.0677 24.3176C49.4936 24.3176 49.026 24.7859 49.026 25.3645ZM48.9595 22.5561C48.9595 23.07 49.383 23.4933 49.8886 23.4933C50.401 23.4933 50.8237 23.07 50.8237 22.5561C50.8237 22.0442 50.401 21.6208 49.8886 21.6208C49.383 21.6208 48.9595 22.0442 48.9595 22.5561Z" fill="#BEBDC1"/>
<path d="M51.2237 51.8033C50.6455 52.2499 49.2936 53.2511 47.0466 53.2511C45.8461 53.2511 45.312 52.872 45.1342 52.872C44.9116 52.872 44.6673 53.0946 44.4223 53.3852C43.8943 54.0101 43.2041 55.1693 43.2041 56.4387C43.2041 57.3297 43.8943 58.22 45.1783 58.22C49.3384 58.22 52.4473 55.6131 52.4473 53.4969C52.4473 52.2941 51.736 51.8033 51.2237 51.8033ZM50.0679 51.5583C50.2478 51.4045 50.2899 51.1574 50.2899 50.911V50.3984C50.2899 49.7511 49.316 49.374 47.9811 49.374C46.3571 49.374 45.4898 50.1078 45.4898 50.4209V51.446C45.4898 51.8707 46.4691 52.2941 47.6703 52.2941C48.6265 52.2941 49.4938 52.0491 50.0679 51.5583ZM49.8888 53.765C50.0008 53.765 50.1331 53.8311 50.1331 54.2333C50.1331 54.7227 49.9118 55.3687 49.1151 55.8806C48.5593 56.2611 47.8026 56.5735 46.691 56.5932C46.8688 56.0603 47.0025 55.5014 47.0025 54.9691C47.0025 54.7901 46.9808 54.656 46.9584 54.4559H47.2475C49.0045 54.4566 49.7612 53.765 49.8888 53.765Z" fill="#BEBDC1"/>
<path d="M41.4016 26.5259C41.6459 28.4195 44.182 27.4611 44.182 29.7563C44.182 30.0912 44.0931 30.5827 44.0931 31.0054C44.0931 31.4961 44.1365 31.9195 44.5111 31.9195C44.8885 31.9195 44.978 31.6527 44.978 31.2953C44.978 30.938 44.8885 30.4928 44.8885 30.2478C44.8885 29.4671 45.445 29.2894 45.7795 29.2894C46.6244 29.2894 47.2692 30.1586 48.5375 30.1586C48.2478 31.5853 45.3119 31.2062 45.3119 32.767C45.3119 33.5477 46.0903 33.7247 46.602 33.7247C47.069 33.7247 47.225 33.658 47.225 33.2577C47.225 33.0338 47.1803 32.7887 47.1803 32.6329C47.1803 32.543 47.2474 32.4539 47.3587 32.4539C47.8494 32.4539 50.245 34.2821 50.245 34.8403C50.245 35.3522 47.7143 35.8647 46.9807 35.8647C46.7581 35.8647 46.7133 35.7088 46.7133 35.6197C46.7133 35.4638 47.0913 34.9955 47.0913 34.7287C47.0913 34.5279 46.7581 34.3938 45.8677 34.3938C45.4449 34.3938 45.1334 34.4387 45.1334 34.7736C45.1334 35.3739 46.1121 36.1104 46.1121 36.6665C46.1121 37.1131 45.8454 37.3806 45.1334 37.3806C44.5328 37.3806 43.6248 36.9116 43.6248 36.1322C43.6248 35.508 44.2661 34.8852 44.2661 34.5054C44.2661 34.3938 44.1813 34.2154 43.9146 34.2154C43.0907 34.2154 42.8688 36.399 39.9561 36.6448C40.423 36.2214 40.822 35.7531 40.822 34.796C40.822 34.3277 40.7121 33.9479 40.7121 33.4361C40.7121 32.767 41.0222 32.4321 41.4667 32.4321C42.2886 32.4321 42.689 33.5906 43.2244 33.5906C43.5142 33.5906 43.825 33.3244 43.825 32.9228C43.825 31.2286 40.5791 31.4737 40.5791 29.0886C40.5797 28.442 40.801 27.6395 41.4016 26.5259ZM52.002 33.0569C52.002 33.613 52.1812 34.2597 52.737 34.2597C53.2039 34.2597 53.6036 33.5477 53.6036 32.767C53.6036 31.8753 53.4482 31.1837 53.4482 30.8264C53.4482 30.6712 53.5154 30.6045 53.6036 30.6045C53.9375 30.6269 54.2484 31.5404 54.6053 31.5404C55.0057 31.5404 55.6023 30.8039 55.8459 30.8039C55.9131 30.8039 55.9348 30.8938 55.9348 30.9155C55.9348 31.2504 55.4231 31.9869 55.4231 32.2762C55.4231 32.5212 56.7132 32.5655 56.7132 32.7887C56.7132 33.1236 55.3607 33.1236 54.7166 33.4136C54.0943 33.6804 53.7143 34.0146 53.7143 34.4612C53.7143 34.907 54.1595 34.9955 54.7825 34.9955C56.2673 34.9955 57.3124 34.1937 57.6457 34.1937C57.7122 34.1937 57.7563 34.2372 57.7563 34.3046C57.7563 34.5279 57.0009 35.263 57.0009 35.5979C57.0009 35.9763 58.38 36.4208 58.3576 36.6448C58.3358 36.7115 58.2463 36.7332 58.0909 36.7332C57.8452 36.7332 57.4679 36.6665 57.1781 36.6665C57.0003 36.6665 56.8449 36.6883 56.777 36.7775C56.6229 36.9565 56.8218 38.1381 56.5123 38.1381C56.2225 38.1381 55.4665 35.508 53.759 35.508C53.5141 35.508 53.3363 35.7088 53.3363 36.043C53.3363 36.934 54.2036 37.9591 55.0268 38.4499C55.3993 38.6956 56.023 38.9407 56.023 39.0754C56.023 39.3416 54.604 39.0972 54.604 39.5424C54.604 39.944 54.7818 40.547 54.7818 40.9024C54.7818 41.014 54.7594 41.1467 54.6264 41.1467C54.3597 41.1467 53.7136 39.9215 53.4028 39.9215C53.1361 39.9215 52.5578 40.6566 52.3129 40.6566C52.2463 40.6566 52.2022 40.5899 52.2022 40.5239C52.2022 40.0107 53.0254 38.8522 53.0254 37.7148C53.0254 37.1798 52.9582 36.0206 52.3129 36.0206C51.7794 36.0206 51.1782 36.8673 50.9114 37.7148C50.7567 38.2049 50.8673 40.0998 50.511 40.0998C50.1778 40.0998 50.2667 38.8297 49.8209 38.8297C49.4931 38.8297 48.7812 39.4307 48.5362 39.4307C48.4914 39.4307 48.4466 39.4083 48.4466 39.364C48.4466 39.0972 49.092 38.2273 49.092 38.049C49.092 37.7148 47.6241 37.6705 47.6241 37.403C47.6241 37.2465 48.2023 37.1355 48.7357 37.0457C49.8663 36.8449 51.5338 36.0206 51.5338 34.8621C51.5338 33.5695 50.2885 33.0113 49.47 32.4763C49.0472 32.2088 48.5803 31.9869 48.5803 31.8086C48.5803 31.6296 49.1137 31.6296 49.3363 31.6296C49.6695 31.6296 49.9994 31.6071 49.9994 31.3403C49.9994 31.1388 49.9546 30.7386 49.9546 30.4261C49.9546 30.2029 49.9763 30.0245 50.0665 30.0245C50.3998 30.0245 50.8667 31.1163 51.0899 31.1163C51.4449 31.1163 51.9342 30.2247 52.2687 30.2247C52.3787 30.2247 52.4242 30.292 52.4242 30.4922C52.4255 31.3171 52.002 32.2531 52.002 33.0569Z" fill="#BEBDC1"/>
<path d="M42.047 39.2296C43.0704 39.3637 43.3154 39.7197 43.3154 40.0104C43.3154 40.5011 42.8702 40.6563 42.4467 40.6563C42.1366 40.6563 41.7803 40.5896 41.4023 40.5896C40.9123 40.5896 40.4243 40.7013 40.0246 41.1696C40.3131 41.2138 40.7358 41.4153 40.7358 41.8618C40.7358 43.1544 37.158 42.083 37.158 45.4061C37.158 47.1663 38.9809 49.0844 41.7355 49.0844C43.16 49.0844 44.0714 48.6161 44.0714 48.0797C44.0714 47.657 43.3161 47.9457 43.3161 47.589C43.3161 47.4331 43.5828 47.1425 43.5828 46.8961C43.5828 46.7885 43.4939 46.5863 43.3161 46.5863C42.9143 46.5863 42.1583 47.2309 40.6245 47.2309C39.424 47.2309 38.2459 46.5421 38.2459 45.6048C38.2459 45.4047 38.3355 45.2924 38.4685 45.2924C38.6022 45.2924 38.7793 45.3822 38.9354 45.3822C39.0691 45.3822 39.0908 45.2924 39.0908 45.048C39.0908 44.8023 39.0908 44.1107 39.5122 44.1107C39.9357 44.1107 40.7358 45.6715 43.8047 45.6715C44.8233 45.6715 46.8029 45.4721 47.5372 44.8023C47.5148 47.2548 45.6011 50.4866 41.6025 50.4866C37.4464 50.4866 35.2239 47.1425 35.2239 44.0658C35.2239 40.6563 38.0009 37.5586 41.8027 37.5586C42.7793 37.5586 43.6038 37.8921 43.6038 38.3162C43.6031 38.8968 42.1576 38.5394 42.047 39.2296ZM48.8708 40.4127C49.0262 40.6563 49.0934 40.9021 49.0934 41.1246C49.0934 41.7495 48.6706 42.3287 48.6706 42.9761C48.6706 43.7112 49.2271 44.3122 50.0679 44.3122C50.9793 44.3122 51.6023 43.5785 51.6023 42.7079C51.6023 41.5262 50.5348 40.5236 48.8708 40.4127ZM41.5129 41.8387C41.7341 42.0606 41.802 42.2838 41.802 42.5071C41.802 42.8413 41.6466 43.1986 41.6466 43.5778C41.6466 44.1107 42.047 44.5797 42.6238 44.5797C43.2475 44.5797 43.671 44.0883 43.671 43.5111C43.671 42.6636 42.801 41.8387 41.5129 41.8387ZM44.467 38.0487C46.8023 38.4945 48.07 40.2561 48.07 41.906C48.07 43.0435 47.3588 44.089 46.1128 44.089C44.9781 44.089 44.1596 43.3096 44.1596 42.0612C44.1596 41.1253 44.8885 40.1445 44.8885 39.1854C44.8885 38.8069 44.7779 38.4278 44.467 38.0487ZM45.6235 41.0137C45.6235 41.3254 45.8461 41.5712 46.1576 41.5712C46.5125 41.5712 46.7358 41.2587 46.7358 40.9021C46.7358 40.4344 46.313 39.7878 45.9126 39.7878C45.7341 39.7878 45.8013 40.0553 45.7572 40.3453C45.7341 40.5672 45.6235 40.8347 45.6235 41.0137Z" fill="#BEBDC1"/>
<path d="M21.0895 18.0774C21.8449 18.0774 22.7108 13.9757 22.7108 13.2841C22.7108 13.1058 22.645 12.9717 22.4896 12.9717C21.8001 12.9717 20.8452 16.8733 20.8452 17.7432C20.8445 17.8991 20.8886 18.0774 21.0895 18.0774ZM26.5343 19.3033C27.0888 19.3033 27.7111 17.1626 27.7111 15.8251C27.7111 15.5351 27.667 15.224 27.5326 15.224C27.0657 15.224 26.288 17.4308 26.288 18.6342C26.2886 19.1025 26.4006 19.3033 26.5343 19.3033ZM22.9097 17.3191C23.154 17.3191 23.4655 17.0503 24.045 16.4057C24.0885 16.1157 24.0885 15.8475 24.0885 15.5133C24.0885 15.0682 23.9107 14.5774 23.6446 14.5774C22.9768 14.5774 22.6443 16.3607 22.6443 16.8297C22.645 17.0959 22.7773 17.3191 22.9097 17.3191ZM25.9554 16.4057C25.9554 16.0259 25.8658 15.9367 25.7776 15.9367C25.555 15.9367 25.3114 16.2049 24.9558 16.8066C24.9999 17.6091 25.1336 17.9658 25.3555 17.9658C25.5998 17.9658 25.9554 17.185 25.9554 16.4057ZM27.667 13.7749C29.1342 13.7749 29.8 15.0457 29.8 16.4724C29.8 17.0959 29.6235 18.0107 29.3344 18.0107C29.0453 18.0107 29.0901 17.4975 29.0453 17.0292C29.0012 16.4275 28.8892 16.294 28.689 16.294C28.311 16.294 28.0674 17.185 28.0674 18.0107C28.0674 18.5226 28.1563 19.1025 28.5553 19.1025C28.7779 19.1025 28.9781 18.9909 29.1118 18.8575C29.0229 19.8819 28.2662 20.7749 27.2001 20.7749C25.2442 20.7749 24.5106 18.4783 24.2893 17.1408C23.1112 18.3892 22.0227 19.3033 20.0661 19.3033C18.2446 19.3033 17.4221 17.9658 17.4221 16.6956C17.4221 16.3158 17.5551 15.3357 18.0227 15.3357C18.5779 15.3357 18.0892 17.1626 19.1778 17.1626C19.4452 17.1626 19.9324 16.9393 20.2005 16.2049C20.3559 15.7584 20.4448 15.2914 20.4448 14.8891C20.4448 14.2867 20.3118 13.909 19.8673 13.909C19.4886 13.909 19.0217 14.1976 18.8663 14.3541C19.4004 12.7491 20.6891 11.9248 22.1095 11.9248C23.8672 11.9248 24.7997 13.4849 24.7997 15.224C24.7997 15.4684 24.7773 15.7359 24.7325 15.9816C25.4885 14.7333 26.5343 13.7749 27.667 13.7749Z" fill="#BEBDC1"/>
<path d="M23.511 19.77C22.5555 19.77 22.5114 20.9312 22.5114 23.27C21.7995 21.7324 20.6227 20.0824 19.2444 20.0824C18.3112 20.0824 17.9563 20.7073 17.9563 21.7984C17.9563 22.0217 17.978 22.3566 18.0228 22.556C18.1341 22.1782 18.4897 22.0217 18.9335 22.0217C19.8904 22.0217 21.0455 22.7568 21.8008 23.7608C20.9349 23.6049 20.09 23.4484 19.3794 23.4484C18.9342 23.4484 18.5345 23.4933 18.2013 23.6492C17.5566 23.9385 16.6899 24.8975 16.6899 26.3467C16.6899 26.5699 16.7123 26.8143 16.7571 27.0818C17.5349 25.3427 19.6013 24.5626 20.9349 24.5626C21.2023 24.5626 21.4011 24.5851 21.5572 24.6076C20.8677 25.2311 20.713 26.3235 20.6675 27.0593C20.6465 27.416 20.5121 27.4392 20.2671 27.4392C20.2671 28.1736 20.846 29.2668 20.846 29.8235C20.846 30.0243 20.7347 30.2027 20.6241 30.2476C20.6241 31.2285 21.6006 31.9418 21.6006 32.5653C21.6006 32.7212 21.5572 32.8553 21.4893 32.9227C21.5572 33.3242 22.6322 33.9988 22.7713 34.3371C22.9423 34.7482 23.1344 34.8176 23.2457 34.8176C23.6237 34.8176 24.2222 34.3711 24.2222 33.9695C24.2222 33.8361 24.1109 33.6802 24.0234 33.6129C23.6006 33.3018 23.378 32.6327 23.2002 32.1875C23.0441 32.1875 22.8432 32.1215 22.7727 31.8588C22.6512 31.3973 22.6451 30.5376 22.4673 30.0243C22.1782 29.9576 22.0445 29.846 22.0445 29.2443C22.0445 28.9543 22.2229 27.8169 22.2229 27.4153C22.0899 27.4153 21.9121 27.3262 21.9121 27.0587C21.9121 26.346 22.624 25.7885 22.8229 24.8751C24.0899 25.8103 24.4 26.7687 24.4 27.6168C24.4 28.0613 24.3335 28.4853 24.2446 28.8876C25.1785 28.4186 26.5785 27.7278 26.5785 26.3235C26.5785 25.4979 26.2005 24.5844 23.6888 24.2277C24.4666 23.9378 25.4452 23.7826 26.267 23.7826C27.6901 23.7826 28.512 24.2277 28.6891 25.2304C28.9782 24.7852 29.2008 24.272 29.2008 23.8044C29.2008 22.7112 28.2887 21.9992 27.1336 21.9992C25.7777 21.9992 24.5779 22.7112 23.2884 23.5818C23.868 22.3784 24.2657 21.665 24.9783 21.665C25.0889 21.665 25.2002 21.6875 25.3115 21.7099C25.0448 20.7298 24.0451 19.77 23.511 19.77Z" fill="#BEBDC1"/>
<path d="M60.9561 35.8423C62.0691 35.8423 62.9581 37.2908 62.9581 38.9856C62.9581 40.7908 62.1125 42.7532 60.6053 44.0893C60.5829 41.0807 56.9114 42.0391 56.9114 39.8555C56.9114 38.9196 57.5798 38.2947 58.3806 38.2947C59.0925 38.2947 59.6484 38.4955 60.0488 38.8978C59.6484 38.518 59.4482 37.9823 59.4482 37.4705C59.4482 36.6217 59.9823 35.8423 60.9561 35.8423Z" fill="#BEBDC1"/>
<path d="M41.1124 14.6664C41.6913 15.2239 42.201 15.4683 42.824 15.4683C43.0697 15.4683 43.3594 15.4023 43.5155 15.4023C43.7157 15.4023 43.8481 15.4907 43.8481 15.6466C43.8481 15.8923 43.6255 16.2939 43.3594 16.5172C43.6255 16.6281 43.9153 16.6731 44.2267 16.6731C45.489 16.6731 46.9345 15.8699 46.9345 13.8646C47.2026 14.2199 47.358 14.9564 47.358 15.2913C47.358 17.7206 45.5779 18.6565 43.937 18.6565C42.8695 18.6565 42.3347 18.2992 42.2003 18.2992C41.7789 18.2992 41.8013 19.1473 41.5122 19.1248C41.0005 19.0357 40.5349 17.899 40.5349 16.6955C40.5356 15.9815 40.7134 15.2239 41.1124 14.6664ZM44.467 13.039C44.2892 12.749 43.6255 12.5938 43.3153 12.5938C42.3354 12.5938 41.6683 13.284 41.5352 13.9089C41.4463 13.6856 41.3798 13.4181 41.3798 13.1506C41.3798 12.1697 42.0469 10.9663 43.6716 10.9663C45.09 10.9663 45.6458 11.7239 45.8467 11.7239C46.0686 11.7239 46.2912 11.5006 46.4697 11.5006C46.714 11.5006 46.714 11.8798 46.714 12.148C46.714 13.039 46.3129 14.5773 45.3126 15.1347C45.1341 14.7556 44.7785 14.3316 44.2044 14.0647C44.0489 13.998 43.9824 13.8646 43.9824 13.7305C43.9818 13.4848 44.2037 13.1724 44.467 13.039Z" fill="#BEBDC1"/>
<path d="M25.6664 8.17964C25.6664 8.95969 28.4441 12.7715 28.9781 12.7715C29.4233 12.7715 29.7559 11.9914 29.7559 11.3216C29.7559 11.1446 29.7111 10.967 29.6235 10.8322C29.2231 10.2747 26.4006 8.04554 25.7777 8.04554C25.7105 8.04554 25.6664 8.11293 25.6664 8.17964ZM9.33132 5.88373C9.33132 6.33025 7.64285 7.82297 7.0436 7.82297C6.82169 7.82297 6.75382 7.55614 6.75382 7.3111C6.75382 6.86594 6.95402 6.24108 7.19901 6.0396C7.48676 5.7721 8.15387 5.64005 8.66489 5.64005C8.97571 5.64005 9.33132 5.70539 9.33132 5.88373ZM29.6235 7.17701C29.6235 5.83881 26.0179 3.40949 25.9779 2.36261C25.9738 2.26664 26.026 2.17134 26.1068 2.08626C26.7244 1.43281 29.289 0.956343 29.289 0.399553C29.289 0.110948 28.7549 0.110948 28.4882 0.110948C26.4217 0.110948 23.399 0.868537 23.399 1.60366C23.399 2.36261 26.1102 4.21268 26.1102 5.12682C26.1102 5.37186 25.9548 5.46103 25.7098 5.46103C24.9551 5.46103 23.3101 4.54621 22.5324 4.54621C22.1768 4.54621 22.0424 4.79125 22.0424 5.14928C22.0424 6.21862 23.3094 8.24702 23.3094 8.84738C23.3094 8.91476 23.287 9.00393 23.1981 9.00393C22.7977 9.00393 20.9104 6.77609 20.2426 6.77609C19.999 6.77609 19.9759 7.10962 19.9759 7.60039V8.35797C19.9759 8.87052 19.9535 9.18295 19.7105 9.18295C19.131 9.18295 18.865 7.55614 18.3098 7.55614C17.7316 7.55614 17.6203 10.4531 17.0659 10.4531C16.4205 10.4531 16.9763 7.26549 16.354 7.26549C15.6651 7.26549 14.8867 9.38375 14.3974 9.38375C14.2203 9.38375 14.1762 9.20473 14.1762 9.04886C14.1762 8.4029 14.5528 7.35534 14.5528 6.73185C14.5528 6.41874 14.4639 6.24108 14.1986 6.24108C13.5084 6.24108 11.9977 7.35534 11.4202 7.35534C11.3313 7.35534 11.22 7.3111 11.22 7.22125C11.22 6.6876 13.6421 4.99273 13.6421 4.23514C13.6421 3.49865 10.3072 3.9901 10.3072 3.14198C10.3072 2.42932 12.6872 1.69351 12.6872 0.957705C12.6872 0.311066 9.86406 0.0224609 8.77551 0.0224609C7.46369 0.0224609 6.75314 0.176974 6.75314 0.556108C6.75314 1.13604 9.73172 1.31506 9.73172 1.82692C9.73172 2.31769 6.64185 3.63275 6.64185 4.39033C6.64185 5.05944 10.9974 4.43458 10.9974 5.12682C10.9974 5.88373 7.19834 9.15981 7.19834 10.2523C7.19834 10.498 7.37614 10.6096 7.61978 10.6096C8.77551 10.6096 11.7745 8.4029 12.5977 8.4029C12.8868 8.4029 12.9091 8.75889 12.9091 9.07132C12.9091 9.65125 12.7096 10.5422 12.7096 11.1896C12.7096 11.7014 12.8426 12.0581 13.2865 12.0581C14.1104 12.0581 14.8643 10.6539 15.4215 10.6539C16.132 10.6539 15.7099 14.7774 16.7768 14.7774C17.6875 14.7774 18.0648 10.3197 18.643 10.3197C19.2212 10.3197 19.6888 11.6123 20.2216 11.6123C20.8873 11.6123 20.5765 9.36128 21.2884 9.36128C22.0655 9.36128 24.288 12.0363 25.2883 12.0363C25.5992 12.0363 25.7098 11.7906 25.7098 11.4782C25.7098 10.2965 24.0661 7.62285 24.0661 6.77609C24.0661 6.55351 24.1319 6.48613 24.3762 6.48613C25.2429 6.48613 27.7776 7.68955 28.9768 7.68955C29.3799 7.68955 29.6235 7.46697 29.6235 7.17701ZM27.3114 2.76353C27.3114 3.16444 28.7114 4.03434 29.3568 4.03434C29.7342 4.03434 29.8455 3.52112 29.8455 2.98611C29.8455 2.31769 29.5577 2.29523 28.9788 2.29523C28.2452 2.29523 27.3114 2.49602 27.3114 2.76353ZM22.0885 0.489402C22.0885 0.35531 21.4221 0.221217 20.5114 0.221217C19.0665 0.221217 19.2667 1.42669 18.1558 1.42669C17 1.42669 17.2878 0.176974 15.8212 0.176974C14.9322 0.176974 14.111 0.333528 14.111 0.533646C14.111 0.801831 15.1548 0.6902 15.1548 1.42669C15.1548 2.20606 12.9098 2.42932 12.9098 2.89762C12.9098 3.05349 13.087 3.1202 13.3096 3.1202C13.7995 3.1202 14.5759 2.89762 15.1324 2.89762C15.4439 2.89762 15.733 2.96365 15.733 3.25361C15.733 3.81108 14.5318 4.81439 14.5318 5.26023C14.5318 5.39433 14.6424 5.43925 14.7537 5.43925C15.1989 5.43925 15.9549 4.30185 16.6655 4.30185C17.8436 4.30185 17.0665 6.82034 17.7099 6.82034C18.3763 6.82034 18.0879 4.34541 19.0434 4.34541C19.8225 4.34541 20.3994 6.06207 20.9328 6.06207C21.0665 6.06207 21.1771 5.95112 21.1771 5.79456C21.1771 5.32762 20.5107 4.36787 20.5107 3.74438C20.5107 3.36524 20.7774 3.18623 21.133 3.18623C21.6433 3.18623 22.3328 3.49865 22.7095 3.49865C22.8425 3.49865 22.9762 3.45441 22.9762 3.29854C22.9762 2.76353 21 2.18428 21 1.49339C21.0007 0.801831 22.0885 0.801831 22.0885 0.489402Z" fill="#BEBDC1"/>
<path d="M61.4894 4.10192C61.4894 6.08472 60.0486 7.60058 57.4453 8.02395C57.7351 8.04574 58.0018 8.04574 58.2692 8.04574C61.3116 8.04574 62.4246 6.66465 62.4246 5.50615C62.4246 4.85883 62.0683 4.28026 61.4894 4.10192ZM57.7351 6.35222C57.7351 4.76966 53.9598 4.36806 53.9598 4.01207C53.9598 3.72279 56.0677 3.23134 57.1569 3.20888C55.4902 1.06953 53.1149 1.29279 53.1149 0.913651C53.1149 0.69039 54.8936 0.243869 56.5359 0.243869C57.9136 0.243869 59.203 0.556298 59.203 1.60385C59.203 2.18447 58.7361 2.78686 58.7361 3.67718C58.7361 4.16795 58.9791 4.59132 59.6258 4.59132C60.3167 4.59132 60.4707 3.8562 60.4707 3.07479C60.4707 2.42951 60.3601 1.93874 60.3601 1.62631C60.3601 0.69039 61.0001 0.0668945 61.9122 0.0668945C62.6682 0.0668945 62.8467 0.399743 63.959 0.399743C63.3577 0.757777 63.1358 1.40442 63.1358 1.71548C63.1358 2.65277 63.7377 3.29873 63.7377 5.21618C63.7377 8.73662 60.449 9.98497 56.4246 9.98497C55.3185 9.98497 54.1383 9.8958 52.9812 9.71815C52.8041 9.69569 52.7593 9.65144 52.7593 9.53981C52.7593 9.24985 54.3392 9.09329 54.3392 7.66796C54.3392 7.10981 54.1607 6.57548 54.1607 6.37537C54.1607 6.26374 54.2496 6.19635 54.3392 6.19635C54.6724 6.19635 55.3409 7.48895 56.5814 7.48895C56.9112 7.48895 57.7351 7.37732 57.7351 6.35222ZM61.3564 1.42688C61.3564 1.73795 61.6007 1.98299 61.9122 1.98299C62.2237 1.98299 62.4687 1.73795 62.4687 1.42688C62.4687 1.11445 62.2237 0.868727 61.9122 0.868727C61.6007 0.868727 61.3564 1.11445 61.3564 1.42688Z" fill="#BEBDC1"/>
<path d="M59.3817 22.0216C59.3817 21.554 58.2022 21.5097 58.0916 20.194C58.0685 19.9939 58.002 19.6379 57.757 19.6379C57.3573 19.6379 57.6681 20.8638 57.2236 20.8638C56.2016 20.8638 55.8683 18.8572 55.4903 18.8572C55.4008 18.8572 55.2949 18.9239 55.2949 19.1914C55.2949 19.4371 55.3397 19.593 55.3397 19.8816C55.3397 20.1722 55.2718 20.373 55.0058 20.373C54.4052 20.373 53.8711 18.9681 53.3594 18.9681C53.2481 18.9681 53.1375 19.0355 53.1375 19.1471C53.1375 19.4146 53.5813 19.904 53.5813 20.1498C53.5813 20.6855 52.1358 20.3948 52.1358 20.8413C52.1358 21.0421 52.3353 21.1082 52.6027 21.1082C53.0703 21.1082 53.8046 20.9087 54.1826 20.9087C54.4052 20.9087 54.7384 20.953 54.7384 21.2416C54.7384 21.554 53.9376 21.9549 53.9376 22.2449C53.9376 22.379 54.0706 22.445 54.1819 22.445C54.7825 22.445 55.8453 21.3981 56.6013 21.3981C56.7343 21.3981 57.0675 21.4648 57.0675 21.6656C57.0675 21.9549 56.3122 22.4668 56.3122 22.8908C56.3122 23.0025 56.38 23.1359 56.5131 23.1359C56.9107 23.1359 57.4448 22.089 58.2015 22.089C58.4906 22.089 58.9134 22.2006 59.1367 22.2006C59.3152 22.2006 59.3817 22.089 59.3817 22.0216ZM59.9599 32.8327C60.3162 31.7192 60.7614 30.9377 61.4896 29.7343C60.7614 29.3565 58.8252 28.5527 58.8252 27.2376C58.8252 25.6993 60.737 24.4959 61.1333 24.4959C61.3118 24.4959 61.3559 24.6524 61.3559 24.9424C61.3559 25.7442 60.9779 27.0368 60.9779 27.7284C60.9779 28.3519 61.3783 28.9549 61.7339 28.9549C62.1119 28.9549 63.157 27.6174 63.157 26.3017C63.157 23.9384 61.0885 23.2257 60.4485 23.2257C59.8479 23.2257 58.758 24.2059 56.2009 24.2059C51.4239 24.2059 50.334 19.4596 50.334 17.3856C50.334 17.2964 50.355 17.2739 50.3774 17.2739C50.4887 17.2739 50.957 17.8545 52.4683 17.8545C53.2467 17.8545 53.9586 17.6531 55.0933 17.6531C57.7557 17.6531 58.9351 19.5045 60.5815 21.8657C61.5771 22.4892 63.9578 23.4932 63.9578 26.3241C63.9578 28.8208 61.3111 30.2026 60.6705 32.8777C61.6884 32.7667 62.2897 30.9377 63.3348 30.9377C63.8689 30.9377 64.1132 31.3618 64.1132 32.0316C64.1132 33.0111 63.5567 34.4834 62.4892 35.3968C62.5109 35.3077 62.5109 35.1953 62.5109 35.0619C62.5109 34.4384 62.2673 33.5474 61.554 33.5474C60.4472 33.5474 60.0916 34.7509 59.4692 35.7528C58.8239 33.4801 57.9565 31.4285 56.4011 30.1802C54.8273 28.91 52.1127 29.6002 52.1127 27.2825C52.1127 26.6577 52.5138 25.7667 52.5138 25.0533C52.5138 24.8083 52.469 24.585 52.3346 24.4067C54.4703 25.2099 53.7136 26.6352 55.0275 28.1068C55.8453 29.0441 58.1133 29.9351 59.4251 33.7911C59.4469 33.6802 59.4692 33.3909 59.4692 33.1901C59.4692 29.8909 55.115 26.6577 54.737 25.3202C57.2664 25.6101 57.7109 26.235 58.9121 29.5784C59.1584 30.27 59.9599 31.9867 59.9599 32.8327Z" fill="#BEBDC1"/>
<path d="M47.8031 9.24965C46.2456 9.24965 45.2229 8.47028 45.2229 8.06801C45.2229 7.86721 45.3559 7.73448 45.5351 7.73448C46.0237 7.73448 47.0912 8.49139 47.4461 8.49139C47.5364 8.49139 47.6022 8.44782 47.6022 8.31373C47.6022 7.91213 47.2242 7.24371 47.2242 6.91018C47.2242 6.82034 47.2914 6.75431 47.4244 6.75431C48.0243 6.75431 48.914 6.99935 49.3823 6.99935C49.5377 6.99935 49.5818 6.91018 49.5818 6.82034C49.5818 6.33025 48.1356 5.37186 48.1356 5.0819C48.1356 4.81439 49.9327 4.41212 49.9327 3.9901C49.9327 3.54358 47.4896 3.85601 47.4896 3.43195C47.4896 3.1202 47.9572 2.58519 47.9572 2.34015C47.9572 2.22852 47.8676 2.18428 47.7128 2.18428C47.5126 2.18428 46.4451 2.60766 45.9999 2.60766C45.778 2.60766 45.5106 2.56341 45.5106 2.2503C45.5106 1.73776 46.3779 1.18097 47.7352 1.18097C49.932 1.18097 51.2452 2.69682 51.2452 5.23777C51.2466 8.44782 49.0043 9.24965 47.8031 9.24965ZM43.4706 5.01519C43.4706 4.76947 42.602 4.30185 42.602 4.03434C42.602 3.9901 42.6454 3.96764 42.7126 3.96764C42.9582 3.96764 43.381 4.05681 43.7156 4.05681C44.0047 4.05681 44.0488 2.80845 44.2674 2.80845C44.4228 2.80845 44.6888 3.9901 44.9351 3.9901C45.2236 3.9901 45.757 3.65521 45.9796 3.65521C46.0237 3.65521 46.0685 3.67699 46.0685 3.7226C46.0685 3.87847 45.5127 4.4795 45.5127 4.65784C45.5127 4.85864 46.7587 5.10436 46.7587 5.2827C46.7587 5.50596 45.4903 5.48349 45.4903 5.68429C45.4903 5.83881 45.9579 6.46366 45.9579 6.66446C45.9579 6.70939 45.9348 6.73185 45.8907 6.73185C45.7122 6.73185 45.0234 6.41874 44.8232 6.41874C44.5782 6.41874 44.1825 7.33288 43.9823 7.33288C43.9158 7.33288 43.8717 7.24371 43.8717 7.13208L43.8269 6.24108C43.8269 6.15191 43.7835 6.06207 43.6715 6.06207C43.4041 6.06207 42.8924 6.0396 42.7356 6.0396C42.6244 6.0396 42.5802 6.01782 42.5802 5.9729C42.5796 5.79456 43.4706 5.17107 43.4706 5.01519ZM42.8239 8.66904C43.1808 8.66904 43.2473 9.53962 43.3152 10.0515C43.3593 10.3197 43.4041 10.3415 43.5154 10.3415C43.7828 10.3415 44.2042 9.31636 44.4899 9.31636C44.9114 9.31636 46.0468 10.498 47.9368 10.498C50.6242 10.498 53.1597 8.60233 53.1597 5.26023C53.1597 2.02772 50.8896 0.132731 47.7583 0.132731C46.2694 0.132731 45.1781 0.868538 44.5999 0.868538C44.249 0.891 43.7156 0 43.4476 0C43.3369 0 43.2256 0.221218 43.2256 0.601034C43.2256 0.846756 43.2256 1.62613 42.9582 1.62613C42.4235 1.62613 40.3577 0.0891681 40.3577 0.645277C40.3577 1.1585 41.734 2.71929 41.734 3.1202C41.734 3.52112 40.3794 3.90093 40.3794 4.16776C40.3794 4.65784 41.8235 4.74701 41.8235 5.37186C41.8235 5.99536 40.3115 6.48613 40.3115 6.95443C40.3115 7.33288 41.8235 7.06606 41.8235 7.53368C41.8235 8.0013 40.7126 9.56208 40.7126 10.0066C40.7126 10.1189 40.7343 10.1189 40.8225 10.1189C41.2453 10.1189 42.5124 8.66904 42.8239 8.66904Z" fill="#BEBDC1"/>
<path d="M32.7568 47.8126C32.7568 48.0134 32.6896 48.2367 32.5118 48.4586C32.2689 48.0135 31.5787 47.7902 31.2672 47.7909C28.9781 47.7909 29.8447 51.1126 27.4003 51.1126C26.3782 51.1126 26.2886 50.9785 25.912 50.9785C25.7559 50.9785 25.667 51.0458 25.667 51.1793C25.667 51.7599 26.4895 53.1852 28.7786 53.1852C31.0677 53.1852 33.2685 51.7817 33.2685 50.0412C33.2685 49.7512 33.202 49.4415 33.0683 49.1291C33.1572 48.995 33.3805 48.9058 33.58 48.9058C33.9349 48.9058 34.1351 49.3088 34.4684 49.3088C34.8247 49.3088 35.0914 49.0399 35.0914 48.6839C35.0914 48.3926 34.936 48.1931 34.6699 48.0577C34.8477 47.925 34.9807 47.7017 34.9807 47.4567C34.9807 47.0762 34.7134 46.7215 34.2682 46.7215C34.068 46.7215 33.9356 46.7896 33.7802 46.9421C33.7368 46.5432 33.5135 46.1641 33.0907 46.1641C32.7575 46.1641 32.5118 46.4084 32.5118 46.7889C32.5118 47.1429 32.7568 47.4342 32.7568 47.8126Z" fill="#BEBDC1"/>
<path d="M20.578 43.6678C22.356 44.111 23.245 45.07 23.4222 46.2074C23.6 47.2992 23.8219 48.1923 24.244 48.6368C24.7998 49.2623 25.8891 49.8164 26.8453 49.8164C27.6454 49.8164 28.2888 49.5516 28.2888 48.8151C28.2888 48.0119 27.2002 46.2068 25.6 46.2068C25.4445 46.2068 25.2443 46.2299 25.0217 46.2299C24.8215 46.2299 24.5324 46.1857 24.3553 46.0291C24.0004 45.716 23.8884 44.0443 23.222 43.0416C22.489 41.9267 21.6889 41.6143 20.6004 41.6143C19.8233 41.6143 18.9553 42.037 18.9553 42.6618C18.9553 43.043 19.1555 43.3098 20.578 43.6678ZM26.7788 48.6599C26.111 48.6599 25.1113 47.9452 25.1113 47.5436C25.1113 47.2087 25.4228 47.0304 25.6658 47.0304C26.2223 47.0304 27.2212 47.7233 27.2212 48.3025C27.2219 48.4584 27.1106 48.6599 26.7788 48.6599Z" fill="#BEBDC1"/>
<path d="M24.7332 31.2953C24.7332 29.8686 28.1122 29.111 28.1122 27.3494C28.1122 27.0595 28.0009 26.5476 27.8007 26.1685C28.9775 26.8144 29.8448 27.9076 29.8448 28.7986C29.8448 30.3369 28.2452 31.0502 28.2452 32.0093C28.2452 33.1236 29.9561 33.3019 29.9561 34.6837C29.9561 35.8197 28.3335 37.1354 28.3335 38.6064C28.3335 39.7431 29.1343 40.6783 30.3551 40.8349C29.9554 40.9241 29.6005 40.9908 29.2225 40.9908C26.9768 40.9908 24.666 39.1414 24.666 36.934C24.666 35.8422 25.133 34.8851 25.8428 34.1936C26.4665 34.7286 27.0881 35.0846 27.4885 35.0846C27.8435 35.0846 28.0002 34.9069 28.0002 34.6394C28.0009 33.8138 24.7332 33.0569 24.7332 31.2953ZM31.8231 42.5522C31.0609 42.9021 30.7569 42.8422 30.7569 43.6229C30.7569 43.9122 30.6897 44.2893 30.6897 44.4908C30.6897 44.7583 30.7338 44.9149 31.0446 44.9149C31.8454 44.9149 33.1125 43.5555 33.1125 42.3957C33.1125 42.0826 32.934 41.9512 32.7338 41.9512C32.556 41.9512 32.3571 42.3065 31.8231 42.5522ZM31.7342 40.9465C31.7342 39.9439 29.667 39.9214 29.667 38.4056C29.667 38.0258 29.9106 37.3805 30.4006 36.6882C30.6015 37.8474 31.0664 38.4498 32.068 38.8296C34.0449 39.5641 34.3123 40.6783 34.3123 41.8614C34.3123 43.868 32.9123 46.364 29.3121 46.364C26.4224 46.364 24.3552 43.7774 24.3552 41.5932C24.3552 40.9908 24.5106 40.323 24.8886 40.323C25.2225 40.323 25.3332 40.5899 25.5999 40.8567C26.6009 41.8614 27.6894 42.1275 29.2673 42.1275C30.6897 42.1282 31.7342 41.5489 31.7342 40.9465Z" fill="#BEBDC1"/>
<path d="M15.9956 41.4297C16.0499 41.8953 15.718 42.3152 15.2545 42.3697C14.7903 42.4241 14.3696 42.0906 14.3166 41.6257C14.2624 41.1595 14.5942 40.7381 15.0584 40.6837C15.5226 40.6292 15.942 40.9634 15.9956 41.4297ZM11.8423 42.3064C11.9366 43.0674 12.6445 43.6446 13.4432 43.5554C13.7316 43.5234 13.999 43.4445 14.1775 43.3328C14.3553 44.0455 14.9519 44.5043 15.7581 44.3981C16.5765 44.2912 17.133 43.6446 17.0448 42.8196C17.0217 42.5977 16.9776 42.4623 16.9118 42.3064C16.9118 42.3064 17.0197 42.2948 17.1011 42.2798C17.904 42.1274 18.4449 41.4814 18.3777 40.7014C18.2894 39.8989 17.5714 39.3033 16.8242 39.3958C16.5345 39.4312 16.2671 39.5422 16.0886 39.6981C15.8877 39.0303 15.2613 38.4497 14.4062 38.5913C13.6332 38.7199 13.1222 39.3775 13.1996 40.2113C13.2125 40.3467 13.2437 40.5012 13.3109 40.6564C13.3109 40.6564 13.1799 40.6762 13.0896 40.6891C12.4409 40.7858 11.7371 41.4406 11.8423 42.3064Z" fill="#BEBDC1"/>
</svg>
