<svg width="149" height="32" viewBox="0 0 149 32" fill="none" xmlns="http://www.w3.org/2000/svg">
<path d="M121.625 4.70364C118.466 7.80816 116.903 11.6156 116.903 16.0322C116.903 24.9592 124.082 32 132.952 32C141.854 32 149 24.992 149 16.0322C149 11.6472 147.404 7.90306 144.31 4.73527C141.183 1.56749 137.386 0 132.952 0C128.548 0 124.752 1.56749 121.625 4.70364ZM103.056 17.0561H113.872V12.192H103.056V5.40772H114.828V0.511949H97.9827V31.5197H114.861V26.6239H103.056V17.0561ZM33.7885 0.511949H28.7153V31.5197H33.7885V0.511949ZM6.54113 31.5197C12.2202 31.5197 16.5911 30.2404 19.5264 27.5834C22.8764 24.5761 24.5678 20.7359 24.5678 16.0322C24.5678 11.1353 22.8449 7.20014 19.3991 4.25612C16.4953 1.75962 12.1875 0.511949 6.60421 0.511949H0V31.5197H6.54113ZM56.6007 24.7354L59.4402 31.5197H65.0562L51.8794 0.415884H49.326L35.7987 31.5197H41.382L44.3489 24.6077C44.4131 24.4156 44.4447 24.2879 44.4762 24.1602C44.6035 24.2246 44.7951 24.2879 45.0193 24.384C46.678 25.0236 48.6567 25.3762 50.6027 25.3762C52.5171 25.3762 54.4 24.992 55.5167 24.6077C56.0902 24.4156 56.2818 24.3195 56.4418 24.2246C56.4733 24.3523 56.5691 24.6405 56.6007 24.7354ZM89.304 9.98367L93.1656 6.65538C89.8471 2.20713 85.412 0 80.1791 0C71.2773 0 64.0996 7.1357 64.0996 16.0638C64.0996 24.7998 71.2458 32 79.956 32C82.1578 32 84.2638 31.5197 86.3056 30.5918C88.2831 29.6956 90.006 28.448 91.4112 26.816C92.7509 25.3118 93.6118 23.5838 94.1222 21.6953C94.5369 20.1278 94.7915 18.2077 94.6654 15.9033L94.6011 14.9755H80.6895V19.8713H89.2409C89.0178 21.7926 88.0273 23.4561 86.3056 24.8315C84.4227 26.3673 82.2851 27.1042 79.8918 27.1042C77.1165 27.1042 74.6273 25.9514 72.3309 23.6799C70.2564 21.5676 69.204 19.0395 69.204 16.0955C69.204 12.9921 70.288 10.3035 72.5225 8.06355C74.6273 5.91967 77.1795 4.89577 80.116 4.89577C83.8807 4.89577 86.8476 6.62376 89.304 9.98367ZM140.704 8.12798C142.875 10.2391 143.927 12.8961 143.927 15.9994C143.927 19.0711 142.842 21.6953 140.704 23.872C138.567 26.0159 135.983 27.1042 132.952 27.1042C126.857 27.1042 122.008 22.0796 122.008 15.9994C122.008 12.9277 123.092 10.2719 125.231 8.09518C127.336 5.9513 129.952 4.89577 132.952 4.89577C135.95 4.89577 138.535 5.98411 140.704 8.12798ZM6.69999 5.40772C11.0393 5.40772 14.102 6.30393 16.0164 7.99912C18.314 10.0153 19.4622 12.6711 19.4622 15.9994C19.4622 19.1672 18.3455 21.7926 16.1449 23.8404C14.2305 25.6633 11.1036 26.6239 6.69999 26.6239H5.29598V5.40772H6.69999ZM46.2949 19.8396C46.3907 19.6475 46.5507 19.3277 46.6138 19.1672L50.5069 9.69547L54.3358 19.2633C54.4 19.4238 54.5274 19.6791 54.6231 19.9041L54.1442 19.999C53.0591 20.2872 51.8467 20.4793 50.6027 20.4793C49.3587 20.4793 48.2093 20.32 46.9969 19.999C46.7738 19.9357 46.4549 19.8396 46.2949 19.8396Z" fill="#BEBDC1"/>
</svg>
