<svg width="144" height="96" viewBox="0 0 144 96" fill="none" xmlns="http://www.w3.org/2000/svg">
<g clip-path="url(#clip0_65_1032)">
<path d="M88.6493 12.6736C87.966 12.2216 87.0658 11.9923 85.9454 11.9923C84.8249 11.9923 83.9247 12.2184 83.2415 12.6736C82.5614 13.1257 82.0368 13.694 81.6742 14.3721C81.3115 15.0534 81.0686 15.7863 80.9456 16.571C80.8257 17.3556 80.7642 18.0821 80.7642 18.7473C80.7642 19.4125 80.8257 20.139 80.9456 20.9236C81.0654 21.7082 81.3082 22.4412 81.6742 23.1225C82.0368 23.8006 82.5614 24.3689 83.2415 24.821C83.9247 25.273 84.8249 25.5023 85.9454 25.5023C87.0658 25.5023 87.9692 25.2762 88.6493 24.821C89.3293 24.3689 89.8539 23.8006 90.2166 23.1225C90.5792 22.4412 90.8221 21.7115 90.9452 20.9236C91.065 20.139 91.1265 19.4125 91.1265 18.7473C91.1265 18.0821 91.065 17.3588 90.9452 16.571C90.8253 15.7863 90.5825 15.0534 90.2166 14.3721C89.8539 13.694 89.3293 13.1257 88.6493 12.6736Z" fill="white"/>
<path d="M48.7901 14.1493C48.4404 13.5003 47.919 12.9772 47.2228 12.5865C46.5266 12.1925 45.5875 11.9956 44.4056 11.9956C43.2236 11.9956 42.3817 12.2216 41.7017 12.6769C41.0184 13.1289 40.497 13.6972 40.1344 14.3753C39.7717 15.0566 39.5288 15.7896 39.409 16.5742C39.2859 17.3589 39.2277 18.0854 39.2277 18.7505C39.2277 19.4157 39.2892 20.1422 39.409 20.9268C39.5288 21.7115 39.7717 22.4445 40.1344 23.1258C40.497 23.8038 41.0216 24.3721 41.7017 24.8242C42.3817 25.2762 43.2851 25.5055 44.4056 25.5055C45.526 25.5055 46.4294 25.2795 47.1095 24.8242C47.7927 24.3721 48.3206 23.8038 48.6994 23.1258C49.0783 22.4445 49.3276 21.7147 49.4507 20.9268C49.5705 20.1422 49.632 19.4157 49.632 18.7505C49.632 17.9336 49.577 17.1264 49.4734 16.3256C49.3665 15.5248 49.1398 14.8015 48.7901 14.1493Z" fill="white"/>
<path d="M105.763 23.1225C106.126 23.8006 106.65 24.3689 107.331 24.821C108.014 25.273 108.914 25.5023 110.034 25.5023C111.155 25.5023 112.058 25.2762 112.738 24.821C113.418 24.3689 113.943 23.8006 114.306 23.1225C114.668 22.4412 114.911 21.7115 115.034 20.9236C115.154 20.139 115.216 19.4125 115.216 18.7473C115.216 18.0821 115.154 17.3588 115.034 16.571C114.914 15.7863 114.672 15.0534 114.306 14.3721C113.943 13.694 113.418 13.1257 112.738 12.6736C112.055 12.2216 111.155 11.9923 110.034 11.9923C108.914 11.9923 108.014 12.2184 107.331 12.6736C106.65 13.1257 106.126 13.694 105.763 14.3721C105.401 15.0534 105.158 15.7863 105.035 16.571C104.915 17.3556 104.853 18.0821 104.853 18.7473C104.853 19.4125 104.915 20.139 105.035 20.9236C105.154 21.7082 105.397 22.4412 105.763 23.1225Z" fill="white"/>
<path d="M143.841 30.2133H138.349V18.7473C138.349 18.0821 138.288 17.4041 138.168 16.7066C138.048 16.0124 137.818 15.3763 137.488 14.8015C137.154 14.2268 136.685 13.7521 136.079 13.3743C135.474 12.9965 134.671 12.8093 133.67 12.8093C132.67 12.8093 131.866 12.9998 131.261 13.3743C130.655 13.7521 130.186 14.23 129.852 14.8015C129.519 15.3763 129.292 16.0091 129.169 16.7066C129.049 17.4008 128.988 18.0821 128.988 18.7473V30.2133H123.444V18.7473C123.444 16.7227 123.677 15.0243 124.15 13.6488C124.619 12.2732 125.218 11.1334 125.944 10.2261C126.183 9.92903 126.433 9.66103 126.685 9.40917L126.659 9.3898L120.529 15.5022C120.714 16.4709 120.808 17.5526 120.808 18.7473C120.808 20.3198 120.649 21.6921 120.332 22.8707C120.015 24.0492 119.603 25.0631 119.105 25.9059C118.606 26.7519 118.03 27.4558 117.379 28.0144C116.728 28.573 116.067 29.0347 115.403 29.3964C113.826 30.2133 112.039 30.6331 110.041 30.6654C108.011 30.6363 106.207 30.2133 104.633 29.3964C103.966 29.0347 103.309 28.573 102.655 28.0144C102.004 27.4558 101.427 26.7519 100.929 25.9059C100.43 25.0599 100.028 24.046 99.7239 22.8707C99.4195 21.6921 99.2706 20.3166 99.2706 18.7473C99.2706 17.178 99.4228 15.8025 99.7239 14.6239C100.025 13.4454 100.43 12.425 100.929 11.5661C101.272 10.9752 101.651 10.4586 102.065 10.0033L96.4663 15.5862C96.6412 16.5322 96.7286 17.5881 96.7286 18.7505C96.7286 20.323 96.5699 21.6953 96.2526 22.8739C95.9352 24.0525 95.524 25.0664 95.0253 25.9091C94.5266 26.7551 93.9502 27.459 93.2993 28.0176C92.6485 28.5762 91.9879 29.038 91.324 29.3996C89.747 30.2165 87.9595 30.6363 85.9615 30.6686C83.9312 30.6395 82.1275 30.2165 80.5537 29.3996C79.8867 29.038 79.2293 28.5762 78.5752 28.0176C77.9243 27.459 77.3479 26.7551 76.8492 25.9091C76.3505 25.0631 75.949 24.0492 75.6446 22.8739C75.3402 21.6953 75.1913 20.3198 75.1913 18.7505C75.1913 17.1813 75.3435 15.8057 75.6446 14.6272C75.9458 13.4486 76.3505 12.4282 76.8492 11.5693C77.2411 10.8945 77.6782 10.3133 78.1639 9.81602L78.1542 9.79341L72.3287 15.6023V30.2198H66.7849V0H66.7752L63.6049 3.16114V30.2133H58.0611V0.0387474L50.1664 7.91093C51.1119 8.42757 51.9182 9.08305 52.5853 9.88705C53.4499 10.93 54.0781 12.199 54.4699 13.694C54.865 15.189 55.0593 16.8907 55.0593 18.7925V30.2133H49.6515V27.5753C49.3601 27.9821 49.0427 28.3341 48.6962 28.6247C47.9093 29.2898 47.1354 29.7742 46.3777 30.0745C45.5001 30.407 44.5902 30.604 43.6511 30.6621C41.7729 30.6331 40.1052 30.2101 38.6513 29.3932C38.0134 29.0315 37.4013 28.5698 36.812 28.0112C36.2226 27.4526 35.6916 26.7486 35.222 25.9027C34.7525 25.0567 34.3736 24.0428 34.0854 22.8674C33.7972 21.6889 33.6547 20.3133 33.6547 18.7441C33.6547 17.1748 33.8069 15.7993 34.1081 14.6207C34.4092 13.4421 34.814 12.4218 35.3127 11.5629C35.7369 10.8331 36.2162 10.2164 36.7472 9.69332L36.7181 9.66749L30.6594 15.7089C30.8051 16.6259 30.8796 17.6365 30.8796 18.7505C30.8796 20.323 30.7209 21.6953 30.4036 22.8739C30.0862 24.0525 29.6782 25.0664 29.1763 25.9091C28.6776 26.7551 28.1012 27.459 27.4503 28.0176C26.7994 28.5762 26.1388 29.038 25.475 29.3996C23.898 30.2165 22.1105 30.6363 20.1125 30.6686C18.1113 30.6395 16.34 30.2165 14.7954 29.3996C14.1283 29.038 13.4774 28.5762 12.8395 28.0176C12.2048 27.459 11.6349 26.7486 11.1362 25.8865C10.6375 25.0244 10.2327 24.0073 9.93159 22.8287C9.6272 21.6501 9.47824 20.2746 9.47824 18.7053V0.0613501L0.816029 8.67297C0.284963 12.2862 0 15.9769 0 19.7354C0 61.8538 34.2441 96 76.4833 96C77.05 96 77.6167 95.9903 78.1801 95.9774L144 30.3457L143.841 30.2101V30.2133Z" fill="white"/>
<path d="M15.796 23.1225C16.1749 23.8006 16.7059 24.3689 17.386 24.821C18.0692 25.273 18.9695 25.5023 20.0899 25.5023C21.2103 25.5023 22.1138 25.2762 22.7938 24.821C23.4738 24.3689 23.9984 23.8006 24.3611 23.1225C24.7238 22.4412 24.9666 21.7115 25.0897 20.9236C25.2095 20.139 25.271 19.4125 25.271 18.7473C25.271 18.0821 25.2095 17.3588 25.0897 16.571C24.9666 15.7863 24.727 15.0534 24.3611 14.3721C23.9984 13.694 23.4738 13.1257 22.7938 12.6736C22.1105 12.2216 21.2103 11.9923 20.0899 11.9923C18.9695 11.9923 18.0692 12.2184 17.386 12.6736C16.7059 13.1257 16.1749 13.694 15.796 14.3721C15.4171 15.0534 15.1678 15.7863 15.0447 16.571C14.9217 17.3556 14.8634 18.0821 14.8634 18.7473C14.8634 19.4125 14.9249 20.139 15.0447 20.9236C15.1646 21.7082 15.4139 22.4412 15.796 23.1225Z" fill="white"/>
</g>
<defs>
<clipPath id="clip0_65_1032">
<rect width="144" height="96" fill="white"/>
</clipPath>
</defs>
</svg>
